<svg width="710" height="651" viewBox="0 0 710 651" fill="none" xmlns="http://www.w3.org/2000/svg">
<g filter="url(#filter0_d_91_10737)">
<path d="M101 120C101 108.954 109.954 100 121 100H254C265.046 100 274 108.954 274 120V148H101V120Z" fill="#D5ECFE"/>
<path d="M610 168C610 156.954 601.046 148 590 148L100 148L100 531C100 542.046 108.954 551 120 551L590 551C601.046 551 610 542.046 610 531L610 168Z" fill="url(#paint0_linear_91_10737)"/>
<g filter="url(#filter1_i_91_10737)">
<path d="M285.875 248H263V270.875H285.875V248Z" fill="#3580BA"/>
<path d="M308.75 248H285.875V270.875H308.75V248Z" fill="#3580BA"/>
<path d="M285.875 270.875H263V293.75H285.875V270.875Z" fill="#3580BA"/>
<path d="M308.75 270.875H285.875V293.75H308.75V270.875Z" fill="#3580BA"/>
<path d="M285.875 293.75H263V316.625H285.875V293.75Z" fill="#3580BA"/>
<path d="M308.75 293.75H285.875V316.625H308.75V293.75Z" fill="#3580BA"/>
<path d="M331.625 316.625H308.75V339.5H331.625V316.625Z" fill="#3580BA"/>
<path d="M308.75 316.625H285.875V339.5H308.75V316.625Z" fill="#3580BA"/>
<path d="M285.875 316.625H263V339.5H285.875V316.625Z" fill="#3580BA"/>
<path d="M354.5 316.625H331.625V339.5H354.5V316.625Z" fill="#3580BA"/>
<path d="M377.375 316.625H354.5V339.5H377.375V316.625Z" fill="#3580BA"/>
<path d="M400.25 316.625H377.375V339.5H400.25V316.625Z" fill="#3580BA"/>
<path d="M423.125 293.75H400.25V316.625H423.125V293.75Z" fill="#3580BA"/>
<path d="M423.125 270.875H400.25V293.75H423.125V270.875Z" fill="#3580BA"/>
<path d="M377.375 261.369H354.5V284.244H377.375V261.369Z" fill="#3580BA"/>
<path d="M377.375 284.244H354.5V307.119H377.375V284.244Z" fill="#3580BA"/>
<path d="M423.125 316.625H400.25V339.5H423.125V316.625Z" fill="#3580BA"/>
<path d="M446 293.75H423.125V316.625H446V293.75Z" fill="#3580BA"/>
<path d="M446 316.625H423.125V339.5H446V316.625Z" fill="#3580BA"/>
<path d="M331.625 339.5H308.75V362.375H331.625V339.5Z" fill="#3580BA"/>
<path d="M308.75 339.5H285.875V362.375H308.75V339.5Z" fill="#3580BA"/>
<path d="M285.875 339.5H263V362.375H285.875V339.5Z" fill="#3580BA"/>
<path d="M354.5 339.5H331.625V362.375H354.5V339.5Z" fill="#3580BA"/>
<path d="M377.375 339.5H354.5V362.375H377.375V339.5Z" fill="#3580BA"/>
<path d="M400.25 339.5H377.375V362.375H400.25V339.5Z" fill="#3580BA"/>
<path d="M423.125 339.5H400.25V362.375H423.125V339.5Z" fill="#3580BA"/>
<path d="M446 339.5H423.125V362.375H446V339.5Z" fill="#3580BA"/>
<path d="M331.625 362.375H308.75V385.25H331.625V362.375Z" fill="#3580BA"/>
<path d="M308.75 362.375H285.875V385.25H308.75V362.375Z" fill="#3580BA"/>
<path d="M285.875 362.375H263V385.25H285.875V362.375Z" fill="#3580BA"/>
<path d="M354.5 362.375H331.625V385.25H354.5V362.375Z" fill="#3580BA"/>
<path d="M377.375 362.375H354.5V385.25H377.375V362.375Z" fill="#3580BA"/>
<path d="M400.25 362.375H377.375V385.25H400.25V362.375Z" fill="#3580BA"/>
<path d="M423.125 362.375H400.25V385.25H423.125V362.375Z" fill="#3580BA"/>
<path d="M446 362.375H423.125V385.25H446V362.375Z" fill="#3580BA"/>
<path d="M331.625 385.25H308.75V408.125H331.625V385.25Z" fill="#3580BA"/>
<path d="M308.75 385.25H285.875V408.125H308.75V385.25Z" fill="#3580BA"/>
<path d="M285.875 385.25H263V408.125H285.875V385.25Z" fill="#3580BA"/>
<path d="M354.5 385.25H331.625V408.125H354.5V385.25Z" fill="#3580BA"/>
<path d="M377.375 385.25H354.5V408.125H377.375V385.25Z" fill="#3580BA"/>
<path d="M400.25 385.25H377.375V408.125H400.25V385.25Z" fill="#3580BA"/>
<path d="M423.125 385.25H400.25V408.125H423.125V385.25Z" fill="#3580BA"/>
<path d="M446 385.25H423.125V408.125H446V385.25Z" fill="#3580BA"/>
<path d="M331.625 408.125H308.75V431H331.625V408.125Z" fill="#3580BA"/>
<path d="M308.75 408.125H285.875V431H308.75V408.125Z" fill="#3580BA"/>
<path d="M285.875 408.125H263V431H285.875V408.125Z" fill="#3580BA"/>
<path d="M354.5 408.125H331.625V431H354.5V408.125Z" fill="#3580BA"/>
<path d="M377.375 408.125H354.5V431H377.375V408.125Z" fill="#3580BA"/>
<path d="M400.25 408.125H377.375V431H400.25V408.125Z" fill="#3580BA"/>
<path d="M423.125 408.125H400.25V431H423.125V408.125Z" fill="#3580BA"/>
<path d="M446 408.125H423.125V431H446V408.125Z" fill="#3580BA"/>
<path d="M446 270.875H423.125V293.75H446V270.875Z" fill="#3580BA"/>
<path d="M423.125 248H400.25V270.875H423.125V248Z" fill="#3580BA"/>
</g>
</g>
<defs>
<filter id="filter0_d_91_10737" x="0" y="0" width="710" height="651" filterUnits="userSpaceOnUse" color-interpolation-filters="sRGB">
<feFlood flood-opacity="0" result="BackgroundImageFix"/>
<feColorMatrix in="SourceAlpha" type="matrix" values="0 0 0 0 0 0 0 0 0 0 0 0 0 0 0 0 0 0 127 0" result="hardAlpha"/>
<feOffset/>
<feGaussianBlur stdDeviation="50"/>
<feComposite in2="hardAlpha" operator="out"/>
<feColorMatrix type="matrix" values="0 0 0 0 0.0001878 0 0 0 0 0.566748 0 0 0 0 1 0 0 0 1 0"/>
<feBlend mode="normal" in2="BackgroundImageFix" result="effect1_dropShadow_91_10737"/>
<feBlend mode="normal" in="SourceGraphic" in2="effect1_dropShadow_91_10737" result="shape"/>
</filter>
<filter id="filter1_i_91_10737" x="263" y="248" width="183" height="187" filterUnits="userSpaceOnUse" color-interpolation-filters="sRGB">
<feFlood flood-opacity="0" result="BackgroundImageFix"/>
<feBlend mode="normal" in="SourceGraphic" in2="BackgroundImageFix" result="shape"/>
<feColorMatrix in="SourceAlpha" type="matrix" values="0 0 0 0 0 0 0 0 0 0 0 0 0 0 0 0 0 0 127 0" result="hardAlpha"/>
<feOffset dy="4"/>
<feGaussianBlur stdDeviation="2"/>
<feComposite in2="hardAlpha" operator="arithmetic" k2="-1" k3="1"/>
<feColorMatrix type="matrix" values="0 0 0 0 0 0 0 0 0 0 0 0 0 0 0 0 0 0 0.25 0"/>
<feBlend mode="normal" in2="shape" result="effect1_innerShadow_91_10737"/>
</filter>
<linearGradient id="paint0_linear_91_10737" x1="355" y1="148" x2="355" y2="551" gradientUnits="userSpaceOnUse">
<stop stop-color="#E0F1FE"/>
<stop offset="1" stop-color="#0091FF"/>
</linearGradient>
</defs>
</svg>
