<svg width="510" height="451" viewBox="0 0 510 451" fill="none" xmlns="http://www.w3.org/2000/svg">
<path d="M1 20C1 8.95431 9.9543 0 21 0H154C165.046 0 174 8.9543 174 20V48H1V20Z" fill="#D5ECFE"/>
<path d="M510 68C510 56.9543 501.046 48 490 48L3.05176e-05 47.9999L4.7773e-06 431C4.03495e-06 442.046 8.95431 451 20 451L490 451C501.046 451 510 442.046 510 431L510 68Z" fill="url(#paint0_linear_199_14426)"/>
<g filter="url(#filter0_i_199_14426)">
<path d="M183.655 233.62H196.994V220.281H183.655V233.62Z" fill="#3580BA"/>
<path d="M196.994 233.62H210.334V220.281H196.994V233.62Z" fill="#3580BA"/>
<path d="M210.31 233.62H223.649V220.281H210.31V233.62Z" fill="#3580BA"/>
<path d="M210.31 220.305H223.649V206.965H210.31V220.305Z" fill="#3580BA"/>
<path d="M210.31 206.966H223.649V193.626H210.31V206.966Z" fill="#3580BA"/>
<path d="M210.31 193.649H223.649V180.31H210.31V193.649Z" fill="#3580BA"/>
<path d="M210.31 180.311H223.649V166.971H210.31V180.311Z" fill="#3580BA"/>
<path d="M210.31 153.655H223.649V140.316H210.31V153.655Z" fill="#3580BA"/>
<path d="M210.31 166.994H223.649V153.655H210.31V166.994Z" fill="#3580BA"/>
<path d="M210.31 140.34H223.649V127H210.31V140.34Z" fill="#3580BA"/>
<path d="M183.655 140.34H196.994V127H183.655V140.34Z" fill="#3580BA"/>
<path d="M170.339 140.34H183.679V127H170.339V140.34Z" fill="#3580BA"/>
<path d="M170.339 153.655H183.679V140.316H170.339V153.655Z" fill="#3580BA"/>
<path d="M170.339 166.994H183.679V153.655H170.339V166.994Z" fill="#3580BA"/>
<path d="M170.339 180.311H183.679V166.971H170.339V180.311Z" fill="#3580BA"/>
<path d="M170.339 193.649H183.679V180.31H170.339V193.649Z" fill="#3580BA"/>
<path d="M170.339 206.966H183.679V193.626H170.339V206.966Z" fill="#3580BA"/>
<path d="M170.339 220.305H183.679V206.965H170.339V220.305Z" fill="#3580BA"/>
<path d="M183.655 153.655H196.994V140.316H183.655V153.655Z" fill="#3580BA"/>
<path d="M183.655 166.994H196.994V153.655H183.655V166.994Z" fill="#3580BA"/>
<path d="M183.655 180.311H196.994V166.971H183.655V180.311Z" fill="#3580BA"/>
<path d="M183.655 193.649H196.994V180.31H183.655V193.649Z" fill="#3580BA"/>
<path d="M183.655 206.966H196.994V193.626H183.655V206.966Z" fill="#3580BA"/>
<path d="M196.994 206.966H210.334V193.626H196.994V206.966Z" fill="#3580BA"/>
<path d="M170.339 233.62H183.679V220.281H170.339V233.62Z" fill="#3580BA"/>
<path d="M170.339 246.96H183.679V233.621H170.339V246.96Z" fill="#3580BA"/>
<path d="M183.655 246.96H196.994V233.621H183.655V246.96Z" fill="#3580BA"/>
<path d="M196.994 246.96H210.334V233.621H196.994V246.96Z" fill="#3580BA"/>
<path d="M196.994 260.275H210.334V246.936H196.994V260.275Z" fill="#3580BA"/>
<path d="M183.655 273.614H196.994V260.275H183.655V273.614Z" fill="#3580BA"/>
<path d="M157 260.275H170.339V246.936H157V260.275Z" fill="#3580BA"/>
<path d="M157 273.614H170.339V260.275H157V273.614Z" fill="#3580BA"/>
<path d="M170.339 260.275H183.679V246.936H170.339V260.275Z" fill="#3580BA"/>
<path d="M183.655 260.275H196.994V246.936H183.655V260.275Z" fill="#3580BA"/>
<path d="M170.339 273.614H183.679V260.275H170.339V273.614Z" fill="#3580BA"/>
<path d="M170.339 286.931H183.679V273.591H170.339V286.931Z" fill="#3580BA"/>
<path d="M183.655 286.931H196.994V273.591H183.655V286.931Z" fill="#3580BA"/>
<path d="M196.994 286.931H210.334V273.591H196.994V286.931Z" fill="#3580BA"/>
<path d="M170.339 300.27H183.679V286.93H170.339V300.27Z" fill="#3580BA"/>
<path d="M183.655 300.27H196.994V286.93H183.655V300.27Z" fill="#3580BA"/>
<path d="M183.655 313.586H196.994V300.247H183.655V313.586Z" fill="#3580BA"/>
<path d="M196.994 313.586H210.334V300.247H196.994V313.586Z" fill="#3580BA"/>
<path d="M210.31 313.586H223.649V300.247H210.31V313.586Z" fill="#3580BA"/>
<path d="M303.614 300.27H316.954V286.93H303.614V300.27Z" fill="#3580BA"/>
<path d="M330.269 300.27H343.609V286.93H330.269V300.27Z" fill="#3580BA"/>
<path d="M343.585 300.27H356.924V286.93H343.585V300.27Z" fill="#3580BA"/>
<path d="M290.275 286.931H303.614V273.591H290.275V286.931Z" fill="#3580BA"/>
<path d="M290.299 273.614H276.959V286.954H290.299V273.614Z" fill="#3580BA"/>
<path d="M263.88 273.853H250.541V287.192H263.88V273.853Z" fill="#3580BA"/>
<path d="M303.614 286.931H316.954V273.591H303.614V286.931Z" fill="#3580BA"/>
<path d="M330.269 286.931H343.609V273.591H330.269V286.931Z" fill="#3580BA"/>
<path d="M316.93 286.931H330.269V273.591H316.93V286.931Z" fill="#3580BA"/>
<path d="M343.585 286.931H356.924V273.591H343.585V286.931Z" fill="#3580BA"/>
<path d="M343.585 313.586H356.924V300.247H343.585V313.586Z" fill="#3580BA"/>
<path d="M343.585 326.925H356.924V313.585H343.585V326.925Z" fill="#3580BA"/>
<path d="M330.269 313.586H343.609V300.247H330.269V313.586Z" fill="#3580BA"/>
<path d="M330.269 326.925H343.609V313.585H330.269V326.925Z" fill="#3580BA"/>
<path d="M316.93 313.586H330.269V300.247H316.93V313.586Z" fill="#3580BA"/>
<path d="M316.93 326.925H330.269V313.585H316.93V326.925Z" fill="#3580BA"/>
<path d="M303.614 313.586H316.954V300.247H303.614V313.586Z" fill="#3580BA"/>
<path d="M290.275 313.586H303.614V300.247H290.275V313.586Z" fill="#3580BA"/>
<path d="M276.959 313.586H290.299V300.247H276.959V313.586Z" fill="#3580BA"/>
<path d="M303.614 326.925H316.954V313.585H303.614V326.925Z" fill="#3580BA"/>
<path d="M290.275 326.925H303.614V313.585H290.275V326.925Z" fill="#3580BA"/>
<path d="M276.959 326.925H290.299V313.585H276.959V326.925Z" fill="#3580BA"/>
<path d="M343.585 340.24H356.924V326.901H343.585V340.24Z" fill="#3580BA"/>
<path d="M356.924 326.925H370.264V313.585H356.924V326.925Z" fill="#3580BA"/>
<path d="M330.269 340.24H343.609V326.901H330.269V340.24Z" fill="#3580BA"/>
<path d="M316.93 340.24H330.269V326.901H316.93V340.24Z" fill="#3580BA"/>
<path d="M303.614 340.24H316.954V326.901H303.614V340.24Z" fill="#3580BA"/>
<path d="M290.275 340.24H303.614V326.901H290.275V340.24Z" fill="#3580BA"/>
<path d="M276.959 340.24H290.299V326.901H276.959V340.24Z" fill="#3580BA"/>
<path d="M263.62 340.24H276.959V326.901H263.62V340.24Z" fill="#3580BA"/>
<path d="M250.304 340.24H263.644V326.901H250.304V340.24Z" fill="#3580BA"/>
<path d="M196.994 300.27H210.334V286.93H196.994V300.27Z" fill="#3580BA"/>
<path d="M210.31 286.931H223.649V273.591H210.31V286.931Z" fill="#3580BA"/>
<path d="M210.31 273.614H223.649V260.275H210.31V273.614Z" fill="#3580BA"/>
<path d="M223.649 273.614H236.989V260.275H223.649V273.614Z" fill="#3580BA"/>
<path d="M223.649 260.275H236.989V246.936H223.649V260.275Z" fill="#3580BA"/>
<path d="M210.31 246.96H223.649V233.621H210.31V246.96Z" fill="#3580BA"/>
</g>
<defs>
<filter id="filter0_i_199_14426" x="157" y="127" width="213.264" height="217.24" filterUnits="userSpaceOnUse" color-interpolation-filters="sRGB">
<feFlood flood-opacity="0" result="BackgroundImageFix"/>
<feBlend mode="normal" in="SourceGraphic" in2="BackgroundImageFix" result="shape"/>
<feColorMatrix in="SourceAlpha" type="matrix" values="0 0 0 0 0 0 0 0 0 0 0 0 0 0 0 0 0 0 127 0" result="hardAlpha"/>
<feOffset dy="4"/>
<feGaussianBlur stdDeviation="2"/>
<feComposite in2="hardAlpha" operator="arithmetic" k2="-1" k3="1"/>
<feColorMatrix type="matrix" values="0 0 0 0 0 0 0 0 0 0 0 0 0 0 0 0 0 0 0.25 0"/>
<feBlend mode="normal" in2="shape" result="effect1_innerShadow_199_14426"/>
</filter>
<linearGradient id="paint0_linear_199_14426" x1="255" y1="48" x2="255" y2="451" gradientUnits="userSpaceOnUse">
<stop stop-color="#E0F1FE"/>
<stop offset="1" stop-color="#0091FF"/>
</linearGradient>
</defs>
</svg>
