<svg width="510" height="451" viewBox="0 0 510 451" fill="none" xmlns="http://www.w3.org/2000/svg">
<path d="M1 20C1 8.95431 9.9543 0 21 0H154C165.046 0 174 8.9543 174 20V48H1V20Z" fill="#FFE3BF"/>
<path d="M510 68C510 56.9543 501.046 48 490 48L3.05176e-05 47.9999L4.7773e-06 431C4.03495e-06 442.046 8.95431 451 20 451L490 451C501.046 451 510 442.046 510 431L510 68Z" fill="url(#paint0_linear_201_292)"/>
<g filter="url(#filter0_i_201_292)">
<path d="M271 176.444H250.556V196.889H271V176.444Z" fill="#BF7923"/>
<path d="M271 196.889H250.556V217.333H271V196.889Z" fill="#BF7923"/>
<path d="M271 217.333H250.556V237.777H271V217.333Z" fill="#BF7923"/>
<path d="M250.556 237.777H230.111V258.222H250.556V237.777Z" fill="#BF7923"/>
<path d="M271 258.223H250.556V278.667H271V258.223Z" fill="#BF7923"/>
<path d="M291.444 278.667H271V299.111H291.444V278.667Z" fill="#BF7923"/>
<path d="M311.889 299.111H291.444V319.556H311.889V299.111Z" fill="#BF7923"/>
<path d="M291.444 319.556H271V340H291.444V319.556Z" fill="#BF7923"/>
<path d="M127.889 319.556H107.444V340H127.889V319.556Z" fill="#BF7923"/>
<path d="M148.333 319.556H127.889V340H148.333V319.556Z" fill="#BF7923"/>
<path d="M168.778 319.556H148.333V340H168.778V319.556Z" fill="#BF7923"/>
<path d="M189.222 319.556H168.778V340H189.222V319.556Z" fill="#BF7923"/>
<path d="M209.667 319.556H189.222V340H209.667V319.556Z" fill="#BF7923"/>
<path d="M230.111 319.556H209.667V340H230.111V319.556Z" fill="#BF7923"/>
<path d="M107.444 299.111H87V319.556H107.444V299.111Z" fill="#BF7923"/>
<path d="M107.444 278.667H87V299.111H107.444V278.667Z" fill="#BF7923"/>
<path d="M107.444 237.777H87V258.222H107.444V237.777Z" fill="#BF7923"/>
<path d="M127.889 237.777H107.444V258.222H127.889V237.777Z" fill="#BF7923"/>
<path d="M148.333 237.777H127.889V258.222H148.333V237.777Z" fill="#BF7923"/>
<path d="M168.778 237.777H148.333V258.222H168.778V237.777Z" fill="#BF7923"/>
<path d="M189.222 237.777H168.778V258.222H189.222V237.777Z" fill="#BF7923"/>
<path d="M189.222 258.223H168.778V278.667H189.222V258.223Z" fill="#BF7923"/>
<path d="M189.222 278.667H168.778V299.111H189.222V278.667Z" fill="#BF7923"/>
<path d="M189.222 299.111H168.778V319.556H189.222V299.111Z" fill="#BF7923"/>
<path d="M107.444 258.223H87V278.667H107.444V258.223Z" fill="#BF7923"/>
<path d="M352.778 278.667H332.333V299.111H352.778V278.667Z" fill="#BF7923"/>
<path d="M373.222 299.111H352.778V319.556H373.222V299.111Z" fill="#BF7923"/>
<path d="M393.667 319.556H373.222V340H393.667V319.556Z" fill="#BF7923"/>
<path d="M373.222 258.223H352.778V278.667H373.222V258.223Z" fill="#BF7923"/>
<path d="M373.222 237.777H352.778V258.222H373.222V237.777Z" fill="#BF7923"/>
<path d="M373.222 217.333H352.778V237.777H373.222V217.333Z" fill="#BF7923"/>
<path d="M373.222 196.889H352.778V217.333H373.222V196.889Z" fill="#BF7923"/>
<path d="M373.222 176.444H352.778V196.889H373.222V176.444Z" fill="#BF7923"/>
<path d="M352.778 156H332.333V176.444H352.778V156Z" fill="#BF7923"/>
<path d="M373.222 156H352.778V176.444H373.222V156Z" fill="#BF7923"/>
<path d="M393.667 176.444H373.222V196.889H393.667V176.444Z" fill="#BF7923"/>
<path d="M393.667 156H373.222V176.444H393.667V156Z" fill="#BF7923"/>
<path d="M393.667 217.333H373.222V237.777H393.667V217.333Z" fill="#BF7923"/>
<path d="M393.667 196.889H373.222V217.333H393.667V196.889Z" fill="#BF7923"/>
<path d="M332.333 156H311.889V176.444H332.333V156Z" fill="#BF7923"/>
<path d="M311.889 278.667H291.444V299.111H311.889V278.667Z" fill="#BF7923"/>
<path d="M332.333 278.667H311.889V299.111H332.333V278.667Z" fill="#BF7923"/>
<path d="M291.444 156H271V176.444H291.444V156Z" fill="#BF7923"/>
<path d="M311.889 156H291.444V176.444H311.889V156Z" fill="#BF7923"/>
<path d="M332.333 196.889H311.889V217.333H332.333V196.889Z" fill="#BF7923"/>
<path d="M332.333 217.333H311.889V237.777H332.333V217.333Z" fill="#BF7923"/>
</g>
<defs>
<filter id="filter0_i_201_292" x="87" y="156" width="306.667" height="188" filterUnits="userSpaceOnUse" color-interpolation-filters="sRGB">
<feFlood flood-opacity="0" result="BackgroundImageFix"/>
<feBlend mode="normal" in="SourceGraphic" in2="BackgroundImageFix" result="shape"/>
<feColorMatrix in="SourceAlpha" type="matrix" values="0 0 0 0 0 0 0 0 0 0 0 0 0 0 0 0 0 0 127 0" result="hardAlpha"/>
<feOffset dy="4"/>
<feGaussianBlur stdDeviation="2"/>
<feComposite in2="hardAlpha" operator="arithmetic" k2="-1" k3="1"/>
<feColorMatrix type="matrix" values="0 0 0 0 0 0 0 0 0 0 0 0 0 0 0 0 0 0 0.25 0"/>
<feBlend mode="normal" in2="shape" result="effect1_innerShadow_201_292"/>
</filter>
<linearGradient id="paint0_linear_201_292" x1="255" y1="48" x2="255" y2="451" gradientUnits="userSpaceOnUse">
<stop stop-color="#FFEED5"/>
<stop offset="0.730769" stop-color="#FF8C00"/>
</linearGradient>
</defs>
</svg>
