<svg width="518" height="459" viewBox="0 0 518 459" fill="none" xmlns="http://www.w3.org/2000/svg">
<g filter="url(#filter0_d_280_8165)">
<path d="M5 20C5 8.95431 13.9543 0 25 0H158C169.046 0 178 8.9543 178 20V48H5V20Z" fill="url(#paint0_linear_280_8165)"/>
<path d="M514 68C514 56.9543 505.046 48 494 48L4.00003 47.9999L4 431C4 442.046 12.9543 451 24 451L494 451C505.046 451 514 442.046 514 431L514 68Z" fill="url(#paint1_linear_280_8165)"/>
<g filter="url(#filter1_i_280_8165)">
<path d="M251.62 229.581H233.22V247.981H251.62V229.581Z" fill="#F3F3F3"/>
<path d="M306.8 248H325.2V229.6H306.8V248Z" fill="#F3F3F3"/>
<path d="M288.4 266.4H306.8V248H288.4V266.4Z" fill="#F3F3F3"/>
<path d="M270 284.801H288.4V266.401H270V284.801Z" fill="#F3F3F3"/>
<path d="M270 211.2H288.4V192.8H270V211.2Z" fill="#F3F3F3"/>
<path d="M288.4 192.801H306.8V174.401H288.4V192.801Z" fill="#F3F3F3"/>
<path d="M306.8 174.4H325.2V156H306.8V174.4Z" fill="#F3F3F3"/>
<path d="M325.2 174.4H343.6V156H325.2V174.4Z" fill="#F3F3F3"/>
<path d="M343.6 192.801H362V174.401H343.6V192.801Z" fill="#F3F3F3"/>
<path d="M343.6 211.2H362V192.8H343.6V211.2Z" fill="#F3F3F3"/>
<path d="M306.8 211.2H325.2V192.8H306.8V211.2Z" fill="#F3F3F3"/>
<path d="M325.2 229.601H343.6V211.201H325.2V229.601Z" fill="#F3F3F3"/>
<path d="M251.6 229.601H270V211.201H251.6V229.601Z" fill="#F3F3F3"/>
<path d="M196.4 284.801H214.8V266.401H196.4V284.801Z" fill="#F3F3F3"/>
<path d="M214.8 266.4H233.2V248H214.8V266.4Z" fill="#F3F3F3"/>
<path d="M196.4 303.2H214.8V284.8H196.4V303.2Z" fill="#F3F3F3"/>
<path d="M233.2 321.601H251.6V303.201H233.2V321.601Z" fill="#F3F3F3"/>
<path d="M251.6 303.2H270V284.8H251.6V303.2Z" fill="#F3F3F3"/>
<path d="M196.4 321.601H214.8V303.201H196.4V321.601Z" fill="#F3F3F3"/>
<path d="M178 340H196.4V321.6H178V340Z" fill="#F3F3F3"/>
<path d="M214.8 321.601H233.2V303.201H214.8V321.601Z" fill="#F3F3F3"/>
<path d="M233.2 284.801H251.6V266.401H233.2V284.801Z" fill="#F3F3F3"/>
</g>
</g>
<defs>
<filter id="filter0_d_280_8165" x="0" y="0" width="518" height="459" filterUnits="userSpaceOnUse" color-interpolation-filters="sRGB">
<feFlood flood-opacity="0" result="BackgroundImageFix"/>
<feColorMatrix in="SourceAlpha" type="matrix" values="0 0 0 0 0 0 0 0 0 0 0 0 0 0 0 0 0 0 127 0" result="hardAlpha"/>
<feOffset dy="4"/>
<feGaussianBlur stdDeviation="2"/>
<feComposite in2="hardAlpha" operator="out"/>
<feColorMatrix type="matrix" values="0 0 0 0 0 0 0 0 0 0 0 0 0 0 0 0 0 0 0.25 0"/>
<feBlend mode="normal" in2="BackgroundImageFix" result="effect1_dropShadow_280_8165"/>
<feBlend mode="normal" in="SourceGraphic" in2="effect1_dropShadow_280_8165" result="shape"/>
</filter>
<filter id="filter1_i_280_8165" x="178" y="156" width="184" height="188" filterUnits="userSpaceOnUse" color-interpolation-filters="sRGB">
<feFlood flood-opacity="0" result="BackgroundImageFix"/>
<feBlend mode="normal" in="SourceGraphic" in2="BackgroundImageFix" result="shape"/>
<feColorMatrix in="SourceAlpha" type="matrix" values="0 0 0 0 0 0 0 0 0 0 0 0 0 0 0 0 0 0 127 0" result="hardAlpha"/>
<feOffset dy="4"/>
<feGaussianBlur stdDeviation="2"/>
<feComposite in2="hardAlpha" operator="arithmetic" k2="-1" k3="1"/>
<feColorMatrix type="matrix" values="0 0 0 0 0 0 0 0 0 0 0 0 0 0 0 0 0 0 0.25 0"/>
<feBlend mode="normal" in2="shape" result="effect1_innerShadow_280_8165"/>
</filter>
<linearGradient id="paint0_linear_280_8165" x1="91.5" y1="0" x2="91.5" y2="48" gradientUnits="userSpaceOnUse">
<stop stop-color="white"/>
<stop offset="1" stop-color="#FAFAFA"/>
</linearGradient>
<linearGradient id="paint1_linear_280_8165" x1="259" y1="48" x2="259" y2="451" gradientUnits="userSpaceOnUse">
<stop stop-color="white"/>
<stop offset="1" stop-color="#FAFAFA"/>
</linearGradient>
</defs>
</svg>
