<svg width="518" height="459" viewBox="0 0 518 459" fill="none" xmlns="http://www.w3.org/2000/svg">
<g filter="url(#filter0_d_280_8008)">
<path d="M5 20C5 8.95431 13.9543 0 25 0H158C169.046 0 178 8.9543 178 20V48H5V20Z" fill="url(#paint0_linear_280_8008)"/>
<path d="M514 68C514 56.9543 505.046 48 494 48L4.00003 47.9999L4 431C4 442.046 12.9543 451 24 451L494 451C505.046 451 514 442.046 514 431L514 68Z" fill="url(#paint1_linear_280_8008)"/>
<g filter="url(#filter1_i_280_8008)">
<path d="M176.889 196.889H156.444V217.333H176.889V196.889Z" fill="#E8E8E8"/>
<path d="M176.889 258.223H156.444V278.667H176.889V258.223Z" fill="#E8E8E8"/>
<path d="M156.444 278.667H136V299.111H156.444V278.667Z" fill="#E8E8E8"/>
<path d="M238.222 176.444H217.778V196.889H238.222V176.444Z" fill="#E8E8E8"/>
<path d="M238.222 196.889H217.778V217.333H238.222V196.889Z" fill="#E8E8E8"/>
<path d="M238.222 217.333H217.778V237.777H238.222V217.333Z" fill="#E8E8E8"/>
<path d="M217.778 237.777H197.333V258.222H217.778V237.777Z" fill="#E8E8E8"/>
<path d="M238.222 258.223H217.778V278.667H238.222V258.223Z" fill="#E8E8E8"/>
<path d="M258.667 278.667H238.222V299.111H258.667V278.667Z" fill="#E8E8E8"/>
<path d="M279.111 299.111H258.667V319.556H279.111V299.111Z" fill="#E8E8E8"/>
<path d="M258.667 319.556H238.222V340H258.667V319.556Z" fill="#E8E8E8"/>
<path d="M320 278.667H299.556V299.111H320V278.667Z" fill="#E8E8E8"/>
<path d="M340.444 299.111H320V319.556H340.444V299.111Z" fill="#E8E8E8"/>
<path d="M360.889 319.556H340.445V340H360.889V319.556Z" fill="#E8E8E8"/>
<path d="M340.444 258.223H320V278.667H340.444V258.223Z" fill="#E8E8E8"/>
<path d="M340.444 237.777H320V258.222H340.444V237.777Z" fill="#E8E8E8"/>
<path d="M340.444 217.333H320V237.777H340.444V217.333Z" fill="#E8E8E8"/>
<path d="M340.444 196.889H320V217.333H340.444V196.889Z" fill="#E8E8E8"/>
<path d="M340.444 176.444H320V196.889H340.444V176.444Z" fill="#E8E8E8"/>
<path d="M320 156H299.556V176.444H320V156Z" fill="#E8E8E8"/>
<path d="M340.444 156H320V176.444H340.444V156Z" fill="#E8E8E8"/>
<path d="M360.889 176.444H340.445V196.889H360.889V176.444Z" fill="#E8E8E8"/>
<path d="M360.889 156H340.445V176.444H360.889V156Z" fill="#E8E8E8"/>
<path d="M360.889 217.333H340.445V237.777H360.889V217.333Z" fill="#E8E8E8"/>
<path d="M360.889 196.889H340.445V217.333H360.889V196.889Z" fill="#E8E8E8"/>
<path d="M299.556 156H279.111V176.444H299.556V156Z" fill="#E8E8E8"/>
<path d="M279.111 278.667H258.667V299.111H279.111V278.667Z" fill="#E8E8E8"/>
<path d="M299.556 278.667H279.111V299.111H299.556V278.667Z" fill="#E8E8E8"/>
<path d="M258.667 156H238.222V176.444H258.667V156Z" fill="#E8E8E8"/>
<path d="M279.111 156H258.667V176.444H279.111V156Z" fill="#E8E8E8"/>
<path d="M299.556 196.889H279.111V217.333H299.556V196.889Z" fill="#E8E8E8"/>
<path d="M299.556 217.333H279.111V237.777H299.556V217.333Z" fill="#E8E8E8"/>
<path d="M156.444 176.444H136V196.889H156.444V176.444Z" fill="#E8E8E8"/>
</g>
</g>
<defs>
<filter id="filter0_d_280_8008" x="0" y="0" width="518" height="459" filterUnits="userSpaceOnUse" color-interpolation-filters="sRGB">
<feFlood flood-opacity="0" result="BackgroundImageFix"/>
<feColorMatrix in="SourceAlpha" type="matrix" values="0 0 0 0 0 0 0 0 0 0 0 0 0 0 0 0 0 0 127 0" result="hardAlpha"/>
<feOffset dy="4"/>
<feGaussianBlur stdDeviation="2"/>
<feComposite in2="hardAlpha" operator="out"/>
<feColorMatrix type="matrix" values="0 0 0 0 0 0 0 0 0 0 0 0 0 0 0 0 0 0 0.25 0"/>
<feBlend mode="normal" in2="BackgroundImageFix" result="effect1_dropShadow_280_8008"/>
<feBlend mode="normal" in="SourceGraphic" in2="effect1_dropShadow_280_8008" result="shape"/>
</filter>
<filter id="filter1_i_280_8008" x="136" y="156" width="224.889" height="188" filterUnits="userSpaceOnUse" color-interpolation-filters="sRGB">
<feFlood flood-opacity="0" result="BackgroundImageFix"/>
<feBlend mode="normal" in="SourceGraphic" in2="BackgroundImageFix" result="shape"/>
<feColorMatrix in="SourceAlpha" type="matrix" values="0 0 0 0 0 0 0 0 0 0 0 0 0 0 0 0 0 0 127 0" result="hardAlpha"/>
<feOffset dy="4"/>
<feGaussianBlur stdDeviation="2"/>
<feComposite in2="hardAlpha" operator="arithmetic" k2="-1" k3="1"/>
<feColorMatrix type="matrix" values="0 0 0 0 0 0 0 0 0 0 0 0 0 0 0 0 0 0 0.25 0"/>
<feBlend mode="normal" in2="shape" result="effect1_innerShadow_280_8008"/>
</filter>
<linearGradient id="paint0_linear_280_8008" x1="91.5" y1="0" x2="91.5" y2="48" gradientUnits="userSpaceOnUse">
<stop stop-color="white"/>
<stop offset="1" stop-color="#FAFAFA"/>
</linearGradient>
<linearGradient id="paint1_linear_280_8008" x1="259" y1="48" x2="259" y2="451" gradientUnits="userSpaceOnUse">
<stop stop-color="white"/>
<stop offset="1" stop-color="#FAFAFA"/>
</linearGradient>
</defs>
</svg>
