<svg width="510" height="451" viewBox="0 0 510 451" fill="none" xmlns="http://www.w3.org/2000/svg">
<path d="M1 20C1 8.95431 9.9543 0 21 0H154C165.046 0 174 8.9543 174 20V48H1V20Z" fill="#D5ECFE"/>
<path d="M510 68C510 56.9543 501.046 48 490 48L3.05176e-05 47.9999L4.7773e-06 431C4.03495e-06 442.046 8.95431 451 20 451L490 451C501.046 451 510 442.046 510 431L510 68Z" fill="url(#paint0_linear_198_14015)"/>
<g filter="url(#filter0_i_198_14015)">
<path d="M233.348 175.126H212.174V196.3H233.348V175.126Z" fill="#3580BA"/>
<path d="M254.521 175.126H233.348V196.3H254.521V175.126Z" fill="#3580BA"/>
<path d="M275.695 175.126H254.521V196.3H275.695V175.126Z" fill="#3580BA"/>
<path d="M265.108 196.301H243.934V217.475H265.108V196.301Z" fill="#3580BA"/>
<path d="M265.108 156H243.934V177.174H265.108V156Z" fill="#3580BA"/>
<path d="M265.108 217.475H243.934V238.648H265.108V217.475Z" fill="#3580BA"/>
<path d="M265.108 255.306H243.934V276.479H265.108V255.306Z" fill="#3580BA"/>
<path d="M265.108 276.479H243.934V297.652H265.108V276.479Z" fill="#3580BA"/>
<path d="M265.108 318.826H243.934V340H265.108V318.826Z" fill="#3580BA"/>
<path d="M296.869 175.126H275.695V196.3H296.869V175.126Z" fill="#3580BA"/>
<path d="M317.174 196H296V217.174H317.174V196Z" fill="#3580BA"/>
<path d="M318.043 276.479H296.869V297.652H318.043V276.479Z" fill="#3580BA"/>
<path d="M212.174 217.475H191V238.648H212.174V217.475Z" fill="#3580BA"/>
<path d="M233.348 234.131H212.174V255.305H233.348V234.131Z" fill="#3580BA"/>
<path d="M254.521 234.131H233.348V255.305H254.521V234.131Z" fill="#3580BA"/>
<path d="M275.695 234.131H254.521V255.305H275.695V234.131Z" fill="#3580BA"/>
<path d="M296.869 234.131H275.695V255.305H296.869V234.131Z" fill="#3580BA"/>
<path d="M233.348 297.652H212.174V318.826H233.348V297.652Z" fill="#3580BA"/>
<path d="M212.174 277H191V298.174H212.174V277Z" fill="#3580BA"/>
<path d="M254.521 297.652H233.348V318.826H254.521V297.652Z" fill="#3580BA"/>
<path d="M275.695 297.652H254.521V318.826H275.695V297.652Z" fill="#3580BA"/>
<path d="M296.869 297.652H275.695V318.826H296.869V297.652Z" fill="#3580BA"/>
<path d="M318.043 255.306H296.869V276.479H318.043V255.306Z" fill="#3580BA"/>
<path d="M212.174 196.301H191V217.475H212.174V196.301Z" fill="#3580BA"/>
</g>
<defs>
<filter id="filter0_i_198_14015" x="191" y="156" width="127.043" height="188" filterUnits="userSpaceOnUse" color-interpolation-filters="sRGB">
<feFlood flood-opacity="0" result="BackgroundImageFix"/>
<feBlend mode="normal" in="SourceGraphic" in2="BackgroundImageFix" result="shape"/>
<feColorMatrix in="SourceAlpha" type="matrix" values="0 0 0 0 0 0 0 0 0 0 0 0 0 0 0 0 0 0 127 0" result="hardAlpha"/>
<feOffset dy="4"/>
<feGaussianBlur stdDeviation="2"/>
<feComposite in2="hardAlpha" operator="arithmetic" k2="-1" k3="1"/>
<feColorMatrix type="matrix" values="0 0 0 0 0 0 0 0 0 0 0 0 0 0 0 0 0 0 0.25 0"/>
<feBlend mode="normal" in2="shape" result="effect1_innerShadow_198_14015"/>
</filter>
<linearGradient id="paint0_linear_198_14015" x1="255" y1="48" x2="255" y2="451" gradientUnits="userSpaceOnUse">
<stop stop-color="#E0F1FE"/>
<stop offset="1" stop-color="#0091FF"/>
</linearGradient>
</defs>
</svg>
