<svg width="510" height="451" viewBox="0 0 510 451" fill="none" xmlns="http://www.w3.org/2000/svg">
<path d="M1 20C1 8.95431 9.9543 0 21 0H154C165.046 0 174 8.9543 174 20V48H1V20Z" fill="#D5ECFE"/>
<path d="M510 68C510 56.9543 501.046 48 490 48L3.05176e-05 47.9999L4.7773e-06 431C4.03495e-06 442.046 8.95432 451 20 451L490 451C501.046 451 510 442.046 510 431L510 68Z" fill="url(#paint0_linear_198_14216)"/>
<g filter="url(#filter0_i_198_14216)">
<path d="M247.62 229.581H229.22V247.981H247.62V229.581Z" fill="#337BB2"/>
<path d="M302.8 248H321.2V229.6H302.8V248Z" fill="#337BB2"/>
<path d="M284.4 266.4H302.8V248H284.4V266.4Z" fill="#337BB2"/>
<path d="M266 284.801H284.4V266.401H266V284.801Z" fill="#337BB2"/>
<path d="M266 211.2H284.4V192.8H266V211.2Z" fill="#337BB2"/>
<path d="M284.4 192.801H302.8V174.401H284.4V192.801Z" fill="#337BB2"/>
<path d="M302.8 174.4H321.2V156H302.8V174.4Z" fill="#337BB2"/>
<path d="M321.2 174.4H339.6V156H321.2V174.4Z" fill="#337BB2"/>
<path d="M339.6 192.801H358V174.401H339.6V192.801Z" fill="#337BB2"/>
<path d="M339.6 211.2H358V192.8H339.6V211.2Z" fill="#337BB2"/>
<path d="M302.8 211.2H321.2V192.8H302.8V211.2Z" fill="#337BB2"/>
<path d="M321.2 229.601H339.6V211.201H321.2V229.601Z" fill="#337BB2"/>
<path d="M247.6 229.601H266V211.201H247.6V229.601Z" fill="#337BB2"/>
<path d="M192.4 284.801H210.8V266.401H192.4V284.801Z" fill="#337BB2"/>
<path d="M210.8 266.4H229.2V248H210.8V266.4Z" fill="#337BB2"/>
<path d="M192.4 303.2H210.8V284.8H192.4V303.2Z" fill="#337BB2"/>
<path d="M229.2 321.601H247.6V303.201H229.2V321.601Z" fill="#337BB2"/>
<path d="M247.6 303.2H266V284.8H247.6V303.2Z" fill="#337BB2"/>
<path d="M192.4 321.601H210.8V303.201H192.4V321.601Z" fill="#337BB2"/>
<path d="M174 340H192.4V321.6H174V340Z" fill="#337BB2"/>
<path d="M210.8 321.601H229.2V303.201H210.8V321.601Z" fill="#337BB2"/>
<path d="M229.2 284.801H247.6V266.401H229.2V284.801Z" fill="#337BB2"/>
</g>
<defs>
<filter id="filter0_i_198_14216" x="174" y="156" width="184" height="188" filterUnits="userSpaceOnUse" color-interpolation-filters="sRGB">
<feFlood flood-opacity="0" result="BackgroundImageFix"/>
<feBlend mode="normal" in="SourceGraphic" in2="BackgroundImageFix" result="shape"/>
<feColorMatrix in="SourceAlpha" type="matrix" values="0 0 0 0 0 0 0 0 0 0 0 0 0 0 0 0 0 0 127 0" result="hardAlpha"/>
<feOffset dy="4"/>
<feGaussianBlur stdDeviation="2"/>
<feComposite in2="hardAlpha" operator="arithmetic" k2="-1" k3="1"/>
<feColorMatrix type="matrix" values="0 0 0 0 0 0 0 0 0 0 0 0 0 0 0 0 0 0 0.25 0"/>
<feBlend mode="normal" in2="shape" result="effect1_innerShadow_198_14216"/>
</filter>
<linearGradient id="paint0_linear_198_14216" x1="255" y1="48" x2="255" y2="451" gradientUnits="userSpaceOnUse">
<stop stop-color="#E0F1FE"/>
<stop offset="1" stop-color="#0091FF"/>
</linearGradient>
</defs>
</svg>
