<svg width="518" height="459" viewBox="0 0 518 459" fill="none" xmlns="http://www.w3.org/2000/svg">
<g filter="url(#filter0_d_280_8193)">
<path d="M5 20C5 8.95431 13.9543 0 25 0H158C169.046 0 178 8.9543 178 20V48H5V20Z" fill="url(#paint0_linear_280_8193)"/>
<path d="M514 68C514 56.9543 505.046 48 494 48L4.00003 47.9999L4 431C4 442.046 12.9543 451 24 451L494 451C505.046 451 514 442.046 514 431L514 68Z" fill="url(#paint1_linear_280_8193)"/>
<g filter="url(#filter1_i_280_8193)">
<path d="M187.655 233.62H200.994V220.281H187.655V233.62Z" fill="#E8E8E8"/>
<path d="M200.994 233.62H214.334V220.281H200.994V233.62Z" fill="#E8E8E8"/>
<path d="M214.31 233.62H227.649V220.281H214.31V233.62Z" fill="#E8E8E8"/>
<path d="M214.31 220.305H227.649V206.965H214.31V220.305Z" fill="#E8E8E8"/>
<path d="M214.31 206.966H227.649V193.626H214.31V206.966Z" fill="#E8E8E8"/>
<path d="M214.31 193.649H227.649V180.31H214.31V193.649Z" fill="#E8E8E8"/>
<path d="M214.31 180.311H227.649V166.971H214.31V180.311Z" fill="#E8E8E8"/>
<path d="M214.31 153.655H227.649V140.316H214.31V153.655Z" fill="#E8E8E8"/>
<path d="M214.31 166.994H227.649V153.655H214.31V166.994Z" fill="#E8E8E8"/>
<path d="M214.31 140.34H227.649V127H214.31V140.34Z" fill="#E8E8E8"/>
<path d="M187.655 140.34H200.994V127H187.655V140.34Z" fill="#E8E8E8"/>
<path d="M174.339 140.34H187.679V127H174.339V140.34Z" fill="#E8E8E8"/>
<path d="M174.339 153.655H187.679V140.316H174.339V153.655Z" fill="#E8E8E8"/>
<path d="M174.339 166.994H187.679V153.655H174.339V166.994Z" fill="#E8E8E8"/>
<path d="M174.339 180.311H187.679V166.971H174.339V180.311Z" fill="#E8E8E8"/>
<path d="M174.339 193.649H187.679V180.31H174.339V193.649Z" fill="#E8E8E8"/>
<path d="M174.339 206.966H187.679V193.626H174.339V206.966Z" fill="#E8E8E8"/>
<path d="M174.339 220.305H187.679V206.965H174.339V220.305Z" fill="#E8E8E8"/>
<path d="M187.655 153.655H200.994V140.316H187.655V153.655Z" fill="#E8E8E8"/>
<path d="M187.655 166.994H200.994V153.655H187.655V166.994Z" fill="#E8E8E8"/>
<path d="M187.655 180.311H200.994V166.971H187.655V180.311Z" fill="#E8E8E8"/>
<path d="M187.655 193.649H200.994V180.31H187.655V193.649Z" fill="#E8E8E8"/>
<path d="M187.655 206.966H200.994V193.626H187.655V206.966Z" fill="#E8E8E8"/>
<path d="M200.994 206.966H214.334V193.626H200.994V206.966Z" fill="#E8E8E8"/>
<path d="M174.339 233.62H187.679V220.281H174.339V233.62Z" fill="#E8E8E8"/>
<path d="M174.339 246.96H187.679V233.621H174.339V246.96Z" fill="#E8E8E8"/>
<path d="M187.655 246.96H200.994V233.621H187.655V246.96Z" fill="#E8E8E8"/>
<path d="M200.994 246.96H214.334V233.621H200.994V246.96Z" fill="#E8E8E8"/>
<path d="M200.994 260.275H214.334V246.936H200.994V260.275Z" fill="#E8E8E8"/>
<path d="M187.655 273.614H200.994V260.275H187.655V273.614Z" fill="#E8E8E8"/>
<path d="M161 260.275H174.339V246.936H161V260.275Z" fill="#E8E8E8"/>
<path d="M161 273.614H174.339V260.275H161V273.614Z" fill="#E8E8E8"/>
<path d="M174.339 260.275H187.679V246.936H174.339V260.275Z" fill="#E8E8E8"/>
<path d="M187.655 260.275H200.994V246.936H187.655V260.275Z" fill="#E8E8E8"/>
<path d="M174.339 273.614H187.679V260.275H174.339V273.614Z" fill="#E8E8E8"/>
<path d="M174.339 286.931H187.679V273.591H174.339V286.931Z" fill="#E8E8E8"/>
<path d="M187.655 286.931H200.994V273.591H187.655V286.931Z" fill="#E8E8E8"/>
<path d="M200.994 286.931H214.334V273.591H200.994V286.931Z" fill="#E8E8E8"/>
<path d="M174.339 300.27H187.679V286.93H174.339V300.27Z" fill="#E8E8E8"/>
<path d="M187.655 300.27H200.994V286.93H187.655V300.27Z" fill="#E8E8E8"/>
<path d="M187.655 313.586H200.994V300.247H187.655V313.586Z" fill="#E8E8E8"/>
<path d="M200.994 313.586H214.334V300.247H200.994V313.586Z" fill="#E8E8E8"/>
<path d="M214.31 313.586H227.649V300.247H214.31V313.586Z" fill="#E8E8E8"/>
<path d="M307.614 300.27H320.954V286.93H307.614V300.27Z" fill="#E8E8E8"/>
<path d="M334.269 300.27H347.609V286.93H334.269V300.27Z" fill="#E8E8E8"/>
<path d="M347.585 300.27H360.924V286.93H347.585V300.27Z" fill="#E8E8E8"/>
<path d="M294.275 286.931H307.614V273.591H294.275V286.931Z" fill="#E8E8E8"/>
<path d="M294.299 273.614H280.959V286.954H294.299V273.614Z" fill="#E8E8E8"/>
<path d="M267.88 273.853H254.541V287.192H267.88V273.853Z" fill="#E8E8E8"/>
<path d="M307.614 286.931H320.954V273.591H307.614V286.931Z" fill="#E8E8E8"/>
<path d="M334.269 286.931H347.609V273.591H334.269V286.931Z" fill="#E8E8E8"/>
<path d="M320.93 286.931H334.269V273.591H320.93V286.931Z" fill="#E8E8E8"/>
<path d="M347.585 286.931H360.924V273.591H347.585V286.931Z" fill="#E8E8E8"/>
<path d="M347.585 313.586H360.924V300.247H347.585V313.586Z" fill="#E8E8E8"/>
<path d="M347.585 326.925H360.924V313.585H347.585V326.925Z" fill="#E8E8E8"/>
<path d="M334.269 313.586H347.609V300.247H334.269V313.586Z" fill="#E8E8E8"/>
<path d="M334.269 326.925H347.609V313.585H334.269V326.925Z" fill="#E8E8E8"/>
<path d="M320.93 313.586H334.269V300.247H320.93V313.586Z" fill="#E8E8E8"/>
<path d="M320.93 326.925H334.269V313.585H320.93V326.925Z" fill="#E8E8E8"/>
<path d="M307.614 313.586H320.954V300.247H307.614V313.586Z" fill="#E8E8E8"/>
<path d="M294.275 313.586H307.614V300.247H294.275V313.586Z" fill="#E8E8E8"/>
<path d="M280.959 313.586H294.299V300.247H280.959V313.586Z" fill="#E8E8E8"/>
<path d="M307.614 326.925H320.954V313.585H307.614V326.925Z" fill="#E8E8E8"/>
<path d="M294.275 326.925H307.614V313.585H294.275V326.925Z" fill="#E8E8E8"/>
<path d="M280.959 326.925H294.299V313.585H280.959V326.925Z" fill="#E8E8E8"/>
<path d="M347.585 340.24H360.924V326.901H347.585V340.24Z" fill="#E8E8E8"/>
<path d="M360.924 326.925H374.264V313.585H360.924V326.925Z" fill="#E8E8E8"/>
<path d="M334.269 340.24H347.609V326.901H334.269V340.24Z" fill="#E8E8E8"/>
<path d="M320.93 340.24H334.269V326.901H320.93V340.24Z" fill="#E8E8E8"/>
<path d="M307.614 340.24H320.954V326.901H307.614V340.24Z" fill="#E8E8E8"/>
<path d="M294.275 340.24H307.614V326.901H294.275V340.24Z" fill="#E8E8E8"/>
<path d="M280.959 340.24H294.299V326.901H280.959V340.24Z" fill="#E8E8E8"/>
<path d="M267.62 340.24H280.959V326.901H267.62V340.24Z" fill="#E8E8E8"/>
<path d="M254.304 340.24H267.644V326.901H254.304V340.24Z" fill="#E8E8E8"/>
<path d="M200.994 300.27H214.334V286.93H200.994V300.27Z" fill="#E8E8E8"/>
<path d="M214.31 286.931H227.649V273.591H214.31V286.931Z" fill="#E8E8E8"/>
<path d="M214.31 273.614H227.649V260.275H214.31V273.614Z" fill="#E8E8E8"/>
<path d="M227.649 273.614H240.989V260.275H227.649V273.614Z" fill="#E8E8E8"/>
<path d="M227.649 260.275H240.989V246.936H227.649V260.275Z" fill="#E8E8E8"/>
<path d="M214.31 246.96H227.649V233.621H214.31V246.96Z" fill="#E8E8E8"/>
</g>
</g>
<defs>
<filter id="filter0_d_280_8193" x="0" y="0" width="518" height="459" filterUnits="userSpaceOnUse" color-interpolation-filters="sRGB">
<feFlood flood-opacity="0" result="BackgroundImageFix"/>
<feColorMatrix in="SourceAlpha" type="matrix" values="0 0 0 0 0 0 0 0 0 0 0 0 0 0 0 0 0 0 127 0" result="hardAlpha"/>
<feOffset dy="4"/>
<feGaussianBlur stdDeviation="2"/>
<feComposite in2="hardAlpha" operator="out"/>
<feColorMatrix type="matrix" values="0 0 0 0 0 0 0 0 0 0 0 0 0 0 0 0 0 0 0.25 0"/>
<feBlend mode="normal" in2="BackgroundImageFix" result="effect1_dropShadow_280_8193"/>
<feBlend mode="normal" in="SourceGraphic" in2="effect1_dropShadow_280_8193" result="shape"/>
</filter>
<filter id="filter1_i_280_8193" x="161" y="127" width="213.264" height="217.24" filterUnits="userSpaceOnUse" color-interpolation-filters="sRGB">
<feFlood flood-opacity="0" result="BackgroundImageFix"/>
<feBlend mode="normal" in="SourceGraphic" in2="BackgroundImageFix" result="shape"/>
<feColorMatrix in="SourceAlpha" type="matrix" values="0 0 0 0 0 0 0 0 0 0 0 0 0 0 0 0 0 0 127 0" result="hardAlpha"/>
<feOffset dy="4"/>
<feGaussianBlur stdDeviation="2"/>
<feComposite in2="hardAlpha" operator="arithmetic" k2="-1" k3="1"/>
<feColorMatrix type="matrix" values="0 0 0 0 0 0 0 0 0 0 0 0 0 0 0 0 0 0 0.25 0"/>
<feBlend mode="normal" in2="shape" result="effect1_innerShadow_280_8193"/>
</filter>
<linearGradient id="paint0_linear_280_8193" x1="91.5" y1="0" x2="91.5" y2="48" gradientUnits="userSpaceOnUse">
<stop stop-color="white"/>
<stop offset="1" stop-color="#FAFAFA"/>
</linearGradient>
<linearGradient id="paint1_linear_280_8193" x1="259" y1="48" x2="259" y2="451" gradientUnits="userSpaceOnUse">
<stop stop-color="white"/>
<stop offset="1" stop-color="#FAFAFA"/>
</linearGradient>
</defs>
</svg>
