<svg width="518" height="459" viewBox="0 0 518 459" fill="none" xmlns="http://www.w3.org/2000/svg">
<g filter="url(#filter0_d_280_8126)">
<path d="M5 20C5 8.95431 13.9543 0 25 0H158C169.046 0 178 8.9543 178 20V48H5V20Z" fill="url(#paint0_linear_280_8126)"/>
<path d="M514 68C514 56.9543 505.046 48 494 48L4.00003 47.9999L4 431C4 442.046 12.9543 451 24 451L494 451C505.046 451 514 442.046 514 431L514 68Z" fill="url(#paint1_linear_280_8126)"/>
<g filter="url(#filter1_i_280_8126)">
<path d="M190 294H167V317H190V294Z" fill="#E8E8E8"/>
<path d="M190 271H167V294H190V271Z" fill="#E8E8E8"/>
<path d="M190 248H167V271H190V248Z" fill="#E8E8E8"/>
<path d="M190 225H167V248H190V225Z" fill="#E8E8E8"/>
<path d="M236 225H213V248H236V225Z" fill="#E8E8E8"/>
<path d="M259 225H236V248H259V225Z" fill="#E8E8E8"/>
<path d="M259 248H236V271H259V248Z" fill="#E8E8E8"/>
<path d="M259 271H236V294H259V271Z" fill="#E8E8E8"/>
<path d="M259 294H236V317H259V294Z" fill="#E8E8E8"/>
<path d="M259 202H236V225H259V202Z" fill="#E8E8E8"/>
<path d="M259 179H236V202H259V179Z" fill="#E8E8E8"/>
<path d="M259 156H236V179H259V156Z" fill="#E8E8E8"/>
<path d="M351 225H328V248H351V225Z" fill="#E8E8E8"/>
<path d="M351 202H328V225H351V202Z" fill="#E8E8E8"/>
<path d="M351 271H328V294H351V271Z" fill="#E8E8E8"/>
<path d="M351 294H328V317H351V294Z" fill="#E8E8E8"/>
<path d="M305 202H282V225H305V202Z" fill="#E8E8E8"/>
<path d="M351 248H328V271H351V248Z" fill="#E8E8E8"/>
<path d="M351 179H328V202H351V179Z" fill="#E8E8E8"/>
<path d="M351 156H328V179H351V156Z" fill="#E8E8E8"/>
<path d="M282 156H259V179H282V156Z" fill="#E8E8E8"/>
<path d="M305 156H282V179H305V156Z" fill="#E8E8E8"/>
<path d="M328 156H305V179H328V156Z" fill="#E8E8E8"/>
<path d="M190 317H167V340H190V317Z" fill="#E8E8E8"/>
<path d="M305 317H282V340H305V317Z" fill="#E8E8E8"/>
<path d="M236 317H213V340H236V317Z" fill="#E8E8E8"/>
<path d="M213 225H190V248H213V225Z" fill="#E8E8E8"/>
<path d="M213 317H190V340H213V317Z" fill="#E8E8E8"/>
<path d="M259 317H236V340H259V317Z" fill="#E8E8E8"/>
<path d="M282 317H259V340H282V317Z" fill="#E8E8E8"/>
<path d="M351 317H328V340H351V317Z" fill="#E8E8E8"/>
<path d="M328 317H305V340H328V317Z" fill="#E8E8E8"/>
</g>
</g>
<defs>
<filter id="filter0_d_280_8126" x="0" y="0" width="518" height="459" filterUnits="userSpaceOnUse" color-interpolation-filters="sRGB">
<feFlood flood-opacity="0" result="BackgroundImageFix"/>
<feColorMatrix in="SourceAlpha" type="matrix" values="0 0 0 0 0 0 0 0 0 0 0 0 0 0 0 0 0 0 127 0" result="hardAlpha"/>
<feOffset dy="4"/>
<feGaussianBlur stdDeviation="2"/>
<feComposite in2="hardAlpha" operator="out"/>
<feColorMatrix type="matrix" values="0 0 0 0 0 0 0 0 0 0 0 0 0 0 0 0 0 0 0.25 0"/>
<feBlend mode="normal" in2="BackgroundImageFix" result="effect1_dropShadow_280_8126"/>
<feBlend mode="normal" in="SourceGraphic" in2="effect1_dropShadow_280_8126" result="shape"/>
</filter>
<filter id="filter1_i_280_8126" x="167" y="156" width="184" height="188" filterUnits="userSpaceOnUse" color-interpolation-filters="sRGB">
<feFlood flood-opacity="0" result="BackgroundImageFix"/>
<feBlend mode="normal" in="SourceGraphic" in2="BackgroundImageFix" result="shape"/>
<feColorMatrix in="SourceAlpha" type="matrix" values="0 0 0 0 0 0 0 0 0 0 0 0 0 0 0 0 0 0 127 0" result="hardAlpha"/>
<feOffset dy="4"/>
<feGaussianBlur stdDeviation="2"/>
<feComposite in2="hardAlpha" operator="arithmetic" k2="-1" k3="1"/>
<feColorMatrix type="matrix" values="0 0 0 0 0 0 0 0 0 0 0 0 0 0 0 0 0 0 0.25 0"/>
<feBlend mode="normal" in2="shape" result="effect1_innerShadow_280_8126"/>
</filter>
<linearGradient id="paint0_linear_280_8126" x1="91.5" y1="0" x2="91.5" y2="48" gradientUnits="userSpaceOnUse">
<stop stop-color="white"/>
<stop offset="1" stop-color="#FAFAFA"/>
</linearGradient>
<linearGradient id="paint1_linear_280_8126" x1="259" y1="48" x2="259" y2="451" gradientUnits="userSpaceOnUse">
<stop stop-color="white"/>
<stop offset="1" stop-color="#FAFAFA"/>
</linearGradient>
</defs>
</svg>
