<svg width="510" height="451" viewBox="0 0 510 451" fill="none" xmlns="http://www.w3.org/2000/svg">
<path d="M1 20C1 8.95431 9.9543 0 21 0H154C165.046 0 174 8.9543 174 20V48H1V20Z" fill="#D5ECFE"/>
<path d="M510 68C510 56.9543 501.046 48 490 48L3.05176e-05 47.9999L4.7773e-06 431C4.03495e-06 442.046 8.95431 451 20 451L490 451C501.046 451 510 442.046 510 431L510 68Z" fill="url(#paint0_linear_160_11218)"/>
<g filter="url(#filter0_i_160_11218)">
<path d="M185.875 148H163V170.875H185.875V148Z" fill="#3580BA"/>
<path d="M208.75 148H185.875V170.875H208.75V148Z" fill="#3580BA"/>
<path d="M185.875 170.875H163V193.75H185.875V170.875Z" fill="#3580BA"/>
<path d="M208.75 170.875H185.875V193.75H208.75V170.875Z" fill="#3580BA"/>
<path d="M185.875 193.75H163V216.625H185.875V193.75Z" fill="#3580BA"/>
<path d="M208.75 193.75H185.875V216.625H208.75V193.75Z" fill="#3580BA"/>
<path d="M231.625 216.625H208.75V239.5H231.625V216.625Z" fill="#3580BA"/>
<path d="M208.75 216.625H185.875V239.5H208.75V216.625Z" fill="#3580BA"/>
<path d="M185.875 216.625H163V239.5H185.875V216.625Z" fill="#3580BA"/>
<path d="M254.5 216.625H231.625V239.5H254.5V216.625Z" fill="#3580BA"/>
<path d="M277.375 216.625H254.5V239.5H277.375V216.625Z" fill="#3580BA"/>
<path d="M300.25 216.625H277.375V239.5H300.25V216.625Z" fill="#3580BA"/>
<path d="M323.125 193.75H300.25V216.625H323.125V193.75Z" fill="#3580BA"/>
<path d="M323.125 170.875H300.25V193.75H323.125V170.875Z" fill="#3580BA"/>
<path d="M277.375 161.369H254.5V184.244H277.375V161.369Z" fill="#3580BA"/>
<path d="M277.375 184.244H254.5V207.119H277.375V184.244Z" fill="#3580BA"/>
<path d="M323.125 216.625H300.25V239.5H323.125V216.625Z" fill="#3580BA"/>
<path d="M346 193.75H323.125V216.625H346V193.75Z" fill="#3580BA"/>
<path d="M346 216.625H323.125V239.5H346V216.625Z" fill="#3580BA"/>
<path d="M231.625 239.5H208.75V262.375H231.625V239.5Z" fill="#3580BA"/>
<path d="M208.75 239.5H185.875V262.375H208.75V239.5Z" fill="#3580BA"/>
<path d="M185.875 239.5H163V262.375H185.875V239.5Z" fill="#3580BA"/>
<path d="M254.5 239.5H231.625V262.375H254.5V239.5Z" fill="#3580BA"/>
<path d="M277.375 239.5H254.5V262.375H277.375V239.5Z" fill="#3580BA"/>
<path d="M300.25 239.5H277.375V262.375H300.25V239.5Z" fill="#3580BA"/>
<path d="M323.125 239.5H300.25V262.375H323.125V239.5Z" fill="#3580BA"/>
<path d="M346 239.5H323.125V262.375H346V239.5Z" fill="#3580BA"/>
<path d="M231.625 262.375H208.75V285.25H231.625V262.375Z" fill="#3580BA"/>
<path d="M208.75 262.375H185.875V285.25H208.75V262.375Z" fill="#3580BA"/>
<path d="M185.875 262.375H163V285.25H185.875V262.375Z" fill="#3580BA"/>
<path d="M254.5 262.375H231.625V285.25H254.5V262.375Z" fill="#3580BA"/>
<path d="M277.375 262.375H254.5V285.25H277.375V262.375Z" fill="#3580BA"/>
<path d="M300.25 262.375H277.375V285.25H300.25V262.375Z" fill="#3580BA"/>
<path d="M323.125 262.375H300.25V285.25H323.125V262.375Z" fill="#3580BA"/>
<path d="M346 262.375H323.125V285.25H346V262.375Z" fill="#3580BA"/>
<path d="M231.625 285.25H208.75V308.125H231.625V285.25Z" fill="#3580BA"/>
<path d="M208.75 285.25H185.875V308.125H208.75V285.25Z" fill="#3580BA"/>
<path d="M185.875 285.25H163V308.125H185.875V285.25Z" fill="#3580BA"/>
<path d="M254.5 285.25H231.625V308.125H254.5V285.25Z" fill="#3580BA"/>
<path d="M277.375 285.25H254.5V308.125H277.375V285.25Z" fill="#3580BA"/>
<path d="M300.25 285.25H277.375V308.125H300.25V285.25Z" fill="#3580BA"/>
<path d="M323.125 285.25H300.25V308.125H323.125V285.25Z" fill="#3580BA"/>
<path d="M346 285.25H323.125V308.125H346V285.25Z" fill="#3580BA"/>
<path d="M231.625 308.125H208.75V331H231.625V308.125Z" fill="#3580BA"/>
<path d="M208.75 308.125H185.875V331H208.75V308.125Z" fill="#3580BA"/>
<path d="M185.875 308.125H163V331H185.875V308.125Z" fill="#3580BA"/>
<path d="M254.5 308.125H231.625V331H254.5V308.125Z" fill="#3580BA"/>
<path d="M277.375 308.125H254.5V331H277.375V308.125Z" fill="#3580BA"/>
<path d="M300.25 308.125H277.375V331H300.25V308.125Z" fill="#3580BA"/>
<path d="M323.125 308.125H300.25V331H323.125V308.125Z" fill="#3580BA"/>
<path d="M346 308.125H323.125V331H346V308.125Z" fill="#3580BA"/>
<path d="M346 170.875H323.125V193.75H346V170.875Z" fill="#3580BA"/>
<path d="M323.125 148H300.25V170.875H323.125V148Z" fill="#3580BA"/>
</g>
<defs>
<filter id="filter0_i_160_11218" x="163" y="148" width="183" height="187" filterUnits="userSpaceOnUse" color-interpolation-filters="sRGB">
<feFlood flood-opacity="0" result="BackgroundImageFix"/>
<feBlend mode="normal" in="SourceGraphic" in2="BackgroundImageFix" result="shape"/>
<feColorMatrix in="SourceAlpha" type="matrix" values="0 0 0 0 0 0 0 0 0 0 0 0 0 0 0 0 0 0 127 0" result="hardAlpha"/>
<feOffset dy="4"/>
<feGaussianBlur stdDeviation="2"/>
<feComposite in2="hardAlpha" operator="arithmetic" k2="-1" k3="1"/>
<feColorMatrix type="matrix" values="0 0 0 0 0 0 0 0 0 0 0 0 0 0 0 0 0 0 0.25 0"/>
<feBlend mode="normal" in2="shape" result="effect1_innerShadow_160_11218"/>
</filter>
<linearGradient id="paint0_linear_160_11218" x1="255" y1="48" x2="255" y2="451" gradientUnits="userSpaceOnUse">
<stop stop-color="#E0F1FE"/>
<stop offset="1" stop-color="#0091FF"/>
</linearGradient>
</defs>
</svg>
