<svg width="518" height="459" viewBox="0 0 518 459" fill="none" xmlns="http://www.w3.org/2000/svg">
<g filter="url(#filter0_d_280_8097)">
<path d="M5 20C5 8.95431 13.9543 0 25 0H158C169.046 0 178 8.9543 178 20V48H5V20Z" fill="url(#paint0_linear_280_8097)"/>
<path d="M514 68C514 56.9543 505.046 48 494 48L4.00003 47.9999L4 431C4 442.046 12.9543 451 24 451L494 451C505.046 451 514 442.046 514 431L514 68Z" fill="url(#paint1_linear_280_8097)"/>
<g filter="url(#filter1_i_280_8097)">
<path d="M237.348 175.126H216.174V196.3H237.348V175.126Z" fill="#E8E8E8"/>
<path d="M258.521 175.126H237.348V196.3H258.521V175.126Z" fill="#E8E8E8"/>
<path d="M279.695 175.126H258.521V196.3H279.695V175.126Z" fill="#E8E8E8"/>
<path d="M269.108 196.301H247.934V217.475H269.108V196.301Z" fill="#E8E8E8"/>
<path d="M269.108 156H247.934V177.174H269.108V156Z" fill="#E8E8E8"/>
<path d="M269.108 217.475H247.934V238.648H269.108V217.475Z" fill="#E8E8E8"/>
<path d="M269.108 255.306H247.934V276.479H269.108V255.306Z" fill="#E8E8E8"/>
<path d="M269.108 276.479H247.934V297.652H269.108V276.479Z" fill="#E8E8E8"/>
<path d="M269.108 318.826H247.934V340H269.108V318.826Z" fill="#E8E8E8"/>
<path d="M300.869 175.126H279.695V196.3H300.869V175.126Z" fill="#E8E8E8"/>
<path d="M321.174 196H300V217.174H321.174V196Z" fill="#E8E8E8"/>
<path d="M322.043 276.479H300.869V297.652H322.043V276.479Z" fill="#E8E8E8"/>
<path d="M216.174 217.475H195V238.648H216.174V217.475Z" fill="#E8E8E8"/>
<path d="M237.348 234.131H216.174V255.305H237.348V234.131Z" fill="#E8E8E8"/>
<path d="M258.521 234.131H237.348V255.305H258.521V234.131Z" fill="#E8E8E8"/>
<path d="M279.695 234.131H258.521V255.305H279.695V234.131Z" fill="#E8E8E8"/>
<path d="M300.869 234.131H279.695V255.305H300.869V234.131Z" fill="#E8E8E8"/>
<path d="M237.348 297.652H216.174V318.826H237.348V297.652Z" fill="#E8E8E8"/>
<path d="M216.174 277H195V298.174H216.174V277Z" fill="#E8E8E8"/>
<path d="M258.521 297.652H237.348V318.826H258.521V297.652Z" fill="#E8E8E8"/>
<path d="M279.695 297.652H258.521V318.826H279.695V297.652Z" fill="#E8E8E8"/>
<path d="M300.869 297.652H279.695V318.826H300.869V297.652Z" fill="#E8E8E8"/>
<path d="M322.043 255.306H300.869V276.479H322.043V255.306Z" fill="#E8E8E8"/>
<path d="M216.174 196.301H195V217.475H216.174V196.301Z" fill="#E8E8E8"/>
</g>
</g>
<defs>
<filter id="filter0_d_280_8097" x="0" y="0" width="518" height="459" filterUnits="userSpaceOnUse" color-interpolation-filters="sRGB">
<feFlood flood-opacity="0" result="BackgroundImageFix"/>
<feColorMatrix in="SourceAlpha" type="matrix" values="0 0 0 0 0 0 0 0 0 0 0 0 0 0 0 0 0 0 127 0" result="hardAlpha"/>
<feOffset dy="4"/>
<feGaussianBlur stdDeviation="2"/>
<feComposite in2="hardAlpha" operator="out"/>
<feColorMatrix type="matrix" values="0 0 0 0 0 0 0 0 0 0 0 0 0 0 0 0 0 0 0.25 0"/>
<feBlend mode="normal" in2="BackgroundImageFix" result="effect1_dropShadow_280_8097"/>
<feBlend mode="normal" in="SourceGraphic" in2="effect1_dropShadow_280_8097" result="shape"/>
</filter>
<filter id="filter1_i_280_8097" x="195" y="156" width="127.043" height="188" filterUnits="userSpaceOnUse" color-interpolation-filters="sRGB">
<feFlood flood-opacity="0" result="BackgroundImageFix"/>
<feBlend mode="normal" in="SourceGraphic" in2="BackgroundImageFix" result="shape"/>
<feColorMatrix in="SourceAlpha" type="matrix" values="0 0 0 0 0 0 0 0 0 0 0 0 0 0 0 0 0 0 127 0" result="hardAlpha"/>
<feOffset dy="4"/>
<feGaussianBlur stdDeviation="2"/>
<feComposite in2="hardAlpha" operator="arithmetic" k2="-1" k3="1"/>
<feColorMatrix type="matrix" values="0 0 0 0 0 0 0 0 0 0 0 0 0 0 0 0 0 0 0.25 0"/>
<feBlend mode="normal" in2="shape" result="effect1_innerShadow_280_8097"/>
</filter>
<linearGradient id="paint0_linear_280_8097" x1="91.5" y1="0" x2="91.5" y2="48" gradientUnits="userSpaceOnUse">
<stop stop-color="white"/>
<stop offset="1" stop-color="#FAFAFA"/>
</linearGradient>
<linearGradient id="paint1_linear_280_8097" x1="259" y1="48" x2="259" y2="451" gradientUnits="userSpaceOnUse">
<stop stop-color="white"/>
<stop offset="1" stop-color="#FAFAFA"/>
</linearGradient>
</defs>
</svg>
