<svg width="518" height="459" viewBox="0 0 518 459" fill="none" xmlns="http://www.w3.org/2000/svg">
<g filter="url(#filter0_d_280_8046)">
<path d="M5 20C5 8.95431 13.9543 0 25 0H158C169.046 0 178 8.9543 178 20V48H5V20Z" fill="url(#paint0_linear_280_8046)"/>
<path d="M514 68C514 56.9543 505.046 48 494 48L4.00003 47.9999L4 431C4 442.046 12.9543 451 24 451L494 451C505.046 451 514 442.046 514 431L514 68Z" fill="url(#paint1_linear_280_8046)"/>
<g filter="url(#filter1_i_280_8046)">
<path d="M275 176.444H254.556V196.889H275V176.444Z" fill="#E8E8E8"/>
<path d="M275 196.889H254.556V217.333H275V196.889Z" fill="#E8E8E8"/>
<path d="M275 217.333H254.556V237.777H275V217.333Z" fill="#E8E8E8"/>
<path d="M254.556 237.777H234.111V258.222H254.556V237.777Z" fill="#E8E8E8"/>
<path d="M275 258.223H254.556V278.667H275V258.223Z" fill="#E8E8E8"/>
<path d="M295.444 278.667H275V299.111H295.444V278.667Z" fill="#E8E8E8"/>
<path d="M315.889 299.111H295.444V319.556H315.889V299.111Z" fill="#E8E8E8"/>
<path d="M295.444 319.556H275V340H295.444V319.556Z" fill="#E8E8E8"/>
<path d="M131.889 319.556H111.444V340H131.889V319.556Z" fill="#E8E8E8"/>
<path d="M152.333 319.556H131.889V340H152.333V319.556Z" fill="#E8E8E8"/>
<path d="M172.778 319.556H152.333V340H172.778V319.556Z" fill="#E8E8E8"/>
<path d="M193.222 319.556H172.778V340H193.222V319.556Z" fill="#E8E8E8"/>
<path d="M213.667 319.556H193.222V340H213.667V319.556Z" fill="#E8E8E8"/>
<path d="M234.111 319.556H213.667V340H234.111V319.556Z" fill="#E8E8E8"/>
<path d="M111.444 299.111H91V319.556H111.444V299.111Z" fill="#E8E8E8"/>
<path d="M111.444 278.667H91V299.111H111.444V278.667Z" fill="#E8E8E8"/>
<path d="M111.444 237.777H91V258.222H111.444V237.777Z" fill="#E8E8E8"/>
<path d="M131.889 237.777H111.444V258.222H131.889V237.777Z" fill="#E8E8E8"/>
<path d="M152.333 237.777H131.889V258.222H152.333V237.777Z" fill="#E8E8E8"/>
<path d="M172.778 237.777H152.333V258.222H172.778V237.777Z" fill="#E8E8E8"/>
<path d="M193.222 237.777H172.778V258.222H193.222V237.777Z" fill="#E8E8E8"/>
<path d="M193.222 258.223H172.778V278.667H193.222V258.223Z" fill="#E8E8E8"/>
<path d="M193.222 278.667H172.778V299.111H193.222V278.667Z" fill="#E8E8E8"/>
<path d="M193.222 299.111H172.778V319.556H193.222V299.111Z" fill="#E8E8E8"/>
<path d="M111.444 258.223H91V278.667H111.444V258.223Z" fill="#E8E8E8"/>
<path d="M356.778 278.667H336.333V299.111H356.778V278.667Z" fill="#E8E8E8"/>
<path d="M377.222 299.111H356.778V319.556H377.222V299.111Z" fill="#E8E8E8"/>
<path d="M397.667 319.556H377.222V340H397.667V319.556Z" fill="#E8E8E8"/>
<path d="M377.222 258.223H356.778V278.667H377.222V258.223Z" fill="#E8E8E8"/>
<path d="M377.222 237.777H356.778V258.222H377.222V237.777Z" fill="#E8E8E8"/>
<path d="M377.222 217.333H356.778V237.777H377.222V217.333Z" fill="#E8E8E8"/>
<path d="M377.222 196.889H356.778V217.333H377.222V196.889Z" fill="#E8E8E8"/>
<path d="M377.222 176.444H356.778V196.889H377.222V176.444Z" fill="#E8E8E8"/>
<path d="M356.778 156H336.333V176.444H356.778V156Z" fill="#E8E8E8"/>
<path d="M377.222 156H356.778V176.444H377.222V156Z" fill="#E8E8E8"/>
<path d="M397.667 176.444H377.222V196.889H397.667V176.444Z" fill="#E8E8E8"/>
<path d="M397.667 156H377.222V176.444H397.667V156Z" fill="#E8E8E8"/>
<path d="M397.667 217.333H377.222V237.777H397.667V217.333Z" fill="#E8E8E8"/>
<path d="M397.667 196.889H377.222V217.333H397.667V196.889Z" fill="#E8E8E8"/>
<path d="M336.333 156H315.889V176.444H336.333V156Z" fill="#E8E8E8"/>
<path d="M315.889 278.667H295.444V299.111H315.889V278.667Z" fill="#E8E8E8"/>
<path d="M336.333 278.667H315.889V299.111H336.333V278.667Z" fill="#E8E8E8"/>
<path d="M295.444 156H275V176.444H295.444V156Z" fill="#E8E8E8"/>
<path d="M315.889 156H295.444V176.444H315.889V156Z" fill="#E8E8E8"/>
<path d="M336.333 196.889H315.889V217.333H336.333V196.889Z" fill="#E8E8E8"/>
<path d="M336.333 217.333H315.889V237.777H336.333V217.333Z" fill="#E8E8E8"/>
</g>
</g>
<defs>
<filter id="filter0_d_280_8046" x="0" y="0" width="518" height="459" filterUnits="userSpaceOnUse" color-interpolation-filters="sRGB">
<feFlood flood-opacity="0" result="BackgroundImageFix"/>
<feColorMatrix in="SourceAlpha" type="matrix" values="0 0 0 0 0 0 0 0 0 0 0 0 0 0 0 0 0 0 127 0" result="hardAlpha"/>
<feOffset dy="4"/>
<feGaussianBlur stdDeviation="2"/>
<feComposite in2="hardAlpha" operator="out"/>
<feColorMatrix type="matrix" values="0 0 0 0 0 0 0 0 0 0 0 0 0 0 0 0 0 0 0.25 0"/>
<feBlend mode="normal" in2="BackgroundImageFix" result="effect1_dropShadow_280_8046"/>
<feBlend mode="normal" in="SourceGraphic" in2="effect1_dropShadow_280_8046" result="shape"/>
</filter>
<filter id="filter1_i_280_8046" x="91" y="156" width="306.667" height="188" filterUnits="userSpaceOnUse" color-interpolation-filters="sRGB">
<feFlood flood-opacity="0" result="BackgroundImageFix"/>
<feBlend mode="normal" in="SourceGraphic" in2="BackgroundImageFix" result="shape"/>
<feColorMatrix in="SourceAlpha" type="matrix" values="0 0 0 0 0 0 0 0 0 0 0 0 0 0 0 0 0 0 127 0" result="hardAlpha"/>
<feOffset dy="4"/>
<feGaussianBlur stdDeviation="2"/>
<feComposite in2="hardAlpha" operator="arithmetic" k2="-1" k3="1"/>
<feColorMatrix type="matrix" values="0 0 0 0 0 0 0 0 0 0 0 0 0 0 0 0 0 0 0.25 0"/>
<feBlend mode="normal" in2="shape" result="effect1_innerShadow_280_8046"/>
</filter>
<linearGradient id="paint0_linear_280_8046" x1="91.5" y1="0" x2="91.5" y2="48" gradientUnits="userSpaceOnUse">
<stop stop-color="white"/>
<stop offset="1" stop-color="#FAFAFA"/>
</linearGradient>
<linearGradient id="paint1_linear_280_8046" x1="259" y1="48" x2="259" y2="451" gradientUnits="userSpaceOnUse">
<stop stop-color="white"/>
<stop offset="1" stop-color="#FAFAFA"/>
</linearGradient>
</defs>
</svg>
