<svg width="518" height="459" viewBox="0 0 518 459" fill="none" xmlns="http://www.w3.org/2000/svg">
<g filter="url(#filter0_d_280_7848)">
<path d="M5 20C5 8.95431 13.9543 0 25 0H158C169.046 0 178 8.9543 178 20V48H5V20Z" fill="url(#paint0_linear_280_7848)"/>
<path d="M514 68C514 56.9543 505.046 48 494 48L4.00003 47.9999L4 431C4 442.046 12.9543 451 24 451L494 451C505.046 451 514 442.046 514 431L514 68Z" fill="url(#paint1_linear_280_7848)"/>
<g filter="url(#filter1_i_280_7848)">
<path d="M189.875 148H167V170.875H189.875V148Z" fill="#E8E8E8"/>
<path d="M212.75 148H189.875V170.875H212.75V148Z" fill="#E8E8E8"/>
<path d="M189.875 170.875H167V193.75H189.875V170.875Z" fill="#E8E8E8"/>
<path d="M212.75 170.875H189.875V193.75H212.75V170.875Z" fill="#E8E8E8"/>
<path d="M189.875 193.75H167V216.625H189.875V193.75Z" fill="#E8E8E8"/>
<path d="M212.75 193.75H189.875V216.625H212.75V193.75Z" fill="#E8E8E8"/>
<path d="M235.625 216.625H212.75V239.5H235.625V216.625Z" fill="#E8E8E8"/>
<path d="M212.75 216.625H189.875V239.5H212.75V216.625Z" fill="#E8E8E8"/>
<path d="M189.875 216.625H167V239.5H189.875V216.625Z" fill="#E8E8E8"/>
<path d="M258.5 216.625H235.625V239.5H258.5V216.625Z" fill="#E8E8E8"/>
<path d="M281.375 216.625H258.5V239.5H281.375V216.625Z" fill="#E8E8E8"/>
<path d="M304.25 216.625H281.375V239.5H304.25V216.625Z" fill="#E8E8E8"/>
<path d="M327.125 193.75H304.25V216.625H327.125V193.75Z" fill="#E8E8E8"/>
<path d="M327.125 170.875H304.25V193.75H327.125V170.875Z" fill="#E8E8E8"/>
<path d="M281.375 161.369H258.5V184.244H281.375V161.369Z" fill="#E8E8E8"/>
<path d="M281.375 184.244H258.5V207.119H281.375V184.244Z" fill="#E8E8E8"/>
<path d="M327.125 216.625H304.25V239.5H327.125V216.625Z" fill="#E8E8E8"/>
<path d="M350 193.75H327.125V216.625H350V193.75Z" fill="#E8E8E8"/>
<path d="M350 216.625H327.125V239.5H350V216.625Z" fill="#E8E8E8"/>
<path d="M235.625 239.5H212.75V262.375H235.625V239.5Z" fill="#E8E8E8"/>
<path d="M212.75 239.5H189.875V262.375H212.75V239.5Z" fill="#E8E8E8"/>
<path d="M189.875 239.5H167V262.375H189.875V239.5Z" fill="#E8E8E8"/>
<path d="M258.5 239.5H235.625V262.375H258.5V239.5Z" fill="#E8E8E8"/>
<path d="M281.375 239.5H258.5V262.375H281.375V239.5Z" fill="#E8E8E8"/>
<path d="M304.25 239.5H281.375V262.375H304.25V239.5Z" fill="#E8E8E8"/>
<path d="M327.125 239.5H304.25V262.375H327.125V239.5Z" fill="#E8E8E8"/>
<path d="M350 239.5H327.125V262.375H350V239.5Z" fill="#E8E8E8"/>
<path d="M235.625 262.375H212.75V285.25H235.625V262.375Z" fill="#E8E8E8"/>
<path d="M212.75 262.375H189.875V285.25H212.75V262.375Z" fill="#E8E8E8"/>
<path d="M189.875 262.375H167V285.25H189.875V262.375Z" fill="#E8E8E8"/>
<path d="M258.5 262.375H235.625V285.25H258.5V262.375Z" fill="#E8E8E8"/>
<path d="M281.375 262.375H258.5V285.25H281.375V262.375Z" fill="#E8E8E8"/>
<path d="M304.25 262.375H281.375V285.25H304.25V262.375Z" fill="#E8E8E8"/>
<path d="M327.125 262.375H304.25V285.25H327.125V262.375Z" fill="#E8E8E8"/>
<path d="M350 262.375H327.125V285.25H350V262.375Z" fill="#E8E8E8"/>
<path d="M235.625 285.25H212.75V308.125H235.625V285.25Z" fill="#E8E8E8"/>
<path d="M212.75 285.25H189.875V308.125H212.75V285.25Z" fill="#E8E8E8"/>
<path d="M189.875 285.25H167V308.125H189.875V285.25Z" fill="#E8E8E8"/>
<path d="M258.5 285.25H235.625V308.125H258.5V285.25Z" fill="#E8E8E8"/>
<path d="M281.375 285.25H258.5V308.125H281.375V285.25Z" fill="#E8E8E8"/>
<path d="M304.25 285.25H281.375V308.125H304.25V285.25Z" fill="#E8E8E8"/>
<path d="M327.125 285.25H304.25V308.125H327.125V285.25Z" fill="#E8E8E8"/>
<path d="M350 285.25H327.125V308.125H350V285.25Z" fill="#E8E8E8"/>
<path d="M235.625 308.125H212.75V331H235.625V308.125Z" fill="#E8E8E8"/>
<path d="M212.75 308.125H189.875V331H212.75V308.125Z" fill="#E8E8E8"/>
<path d="M189.875 308.125H167V331H189.875V308.125Z" fill="#E8E8E8"/>
<path d="M258.5 308.125H235.625V331H258.5V308.125Z" fill="#E8E8E8"/>
<path d="M281.375 308.125H258.5V331H281.375V308.125Z" fill="#E8E8E8"/>
<path d="M304.25 308.125H281.375V331H304.25V308.125Z" fill="#E8E8E8"/>
<path d="M327.125 308.125H304.25V331H327.125V308.125Z" fill="#E8E8E8"/>
<path d="M350 308.125H327.125V331H350V308.125Z" fill="#E8E8E8"/>
<path d="M350 170.875H327.125V193.75H350V170.875Z" fill="#E8E8E8"/>
<path d="M327.125 148H304.25V170.875H327.125V148Z" fill="#E8E8E8"/>
</g>
</g>
<defs>
<filter id="filter0_d_280_7848" x="0" y="0" width="518" height="459" filterUnits="userSpaceOnUse" color-interpolation-filters="sRGB">
<feFlood flood-opacity="0" result="BackgroundImageFix"/>
<feColorMatrix in="SourceAlpha" type="matrix" values="0 0 0 0 0 0 0 0 0 0 0 0 0 0 0 0 0 0 127 0" result="hardAlpha"/>
<feOffset dy="4"/>
<feGaussianBlur stdDeviation="2"/>
<feComposite in2="hardAlpha" operator="out"/>
<feColorMatrix type="matrix" values="0 0 0 0 0 0 0 0 0 0 0 0 0 0 0 0 0 0 0.25 0"/>
<feBlend mode="normal" in2="BackgroundImageFix" result="effect1_dropShadow_280_7848"/>
<feBlend mode="normal" in="SourceGraphic" in2="effect1_dropShadow_280_7848" result="shape"/>
</filter>
<filter id="filter1_i_280_7848" x="167" y="148" width="183" height="187" filterUnits="userSpaceOnUse" color-interpolation-filters="sRGB">
<feFlood flood-opacity="0" result="BackgroundImageFix"/>
<feBlend mode="normal" in="SourceGraphic" in2="BackgroundImageFix" result="shape"/>
<feColorMatrix in="SourceAlpha" type="matrix" values="0 0 0 0 0 0 0 0 0 0 0 0 0 0 0 0 0 0 127 0" result="hardAlpha"/>
<feOffset dy="4"/>
<feGaussianBlur stdDeviation="2"/>
<feComposite in2="hardAlpha" operator="arithmetic" k2="-1" k3="1"/>
<feColorMatrix type="matrix" values="0 0 0 0 0 0 0 0 0 0 0 0 0 0 0 0 0 0 0.25 0"/>
<feBlend mode="normal" in2="shape" result="effect1_innerShadow_280_7848"/>
</filter>
<linearGradient id="paint0_linear_280_7848" x1="91.5" y1="0" x2="91.5" y2="48" gradientUnits="userSpaceOnUse">
<stop stop-color="white"/>
<stop offset="1" stop-color="#FAFAFA"/>
</linearGradient>
<linearGradient id="paint1_linear_280_7848" x1="259" y1="48" x2="259" y2="451" gradientUnits="userSpaceOnUse">
<stop stop-color="white"/>
<stop offset="1" stop-color="#FAFAFA"/>
</linearGradient>
</defs>
</svg>
