<svg width="81" height="81" viewBox="0 0 81 81" fill="none" xmlns="http://www.w3.org/2000/svg">
<path d="M18 9H9V18H18V9Z" fill="#231F20"/>
<path d="M9 18H0V27H9V18Z" fill="#231F20"/>
<path d="M9 27H0V36H9V27Z" fill="#231F20"/>
<path d="M9 36H0V45H9V36Z" fill="#231F20"/>
<path d="M45 36H36V45H45V36Z" fill="#231F20"/>
<path d="M45 27H36V36H45V27Z" fill="#231F20"/>
<path d="M45 18H36V27H45V18Z" fill="#231F20"/>
<path d="M45 0H36V9H45V0Z" fill="#231F20"/>
<path d="M45 9H36V18H45V9Z" fill="#231F20"/>
<path d="M9 45H0V54H9V45Z" fill="#231F20"/>
<path d="M45 45H36V54H45V45Z" fill="#231F20"/>
<path d="M9 54H0V63H9V54Z" fill="#231F20"/>
<path d="M54 36H45V45H54V36Z" fill="#231F20"/>
<path d="M9 63H0V72H9V63Z" fill="#231F20"/>
<path d="M36 36H27V45H36V36Z" fill="#231F20"/>
<path d="M27 72H18V81H27V72Z" fill="#231F20"/>
<path d="M18 72H9V81H18V72Z" fill="#231F20"/>
<path d="M36 72H27V81H36V72Z" fill="#231F20"/>
<path d="M45 72H36V81H45V72Z" fill="#231F20"/>
<path d="M54 72H45V81H54V72Z" fill="#231F20"/>
<path d="M63 72H54V81H63V72Z" fill="#231F20"/>
<path d="M72 72H63V81H72V72Z" fill="#231F20"/>
<path d="M81 27H72V36H81V27Z" fill="#231F20"/>
<path d="M81 18H72V27H81V18Z" fill="#231F20"/>
<path d="M81 36H72V45H81V36Z" fill="#231F20"/>
<path d="M81 45H72V54H81V45Z" fill="#231F20"/>
<path d="M81 54H72V63H81V54Z" fill="#231F20"/>
<path d="M81 63H72V72H81V63Z" fill="#231F20"/>
<path d="M72 9H63V18H72V9Z" fill="#231F20"/>
</svg>
