<svg width="144" height="103" viewBox="0 0 144 103" fill="none" xmlns="http://www.w3.org/2000/svg">
<path d="M40.8888 82.5557H20.4443V103H40.8888V82.5557Z" fill="black"/>
<path d="M61.3334 82.5557H40.8889V103H61.3334V82.5557Z" fill="black"/>
<path d="M81.7777 82.5557H61.3333V103H81.7777V82.5557Z" fill="black"/>
<path d="M102.222 82.5557H81.7778V103H102.222V82.5557Z" fill="black"/>
<path d="M122.667 82.5557H102.222V103H122.667V82.5557Z" fill="black"/>
<path d="M143.111 82.5557H122.667V103H143.111V82.5557Z" fill="black"/>
<path d="M20.4444 62.1113H0V82.5558H20.4444V62.1113Z" fill="black"/>
<path d="M20.4444 41.667H0V62.1114H20.4444V41.667Z" fill="black"/>
<path d="M20.4444 0.777344H0V21.2218H20.4444V0.777344Z" fill="black"/>
<path d="M40.8888 0.777344H20.4443V21.2218H40.8888V0.777344Z" fill="black"/>
<path d="M61.3334 0.777344H40.8889V21.2218H61.3334V0.777344Z" fill="black"/>
<path d="M81.7777 0.777344H61.3333V21.2218H81.7777V0.777344Z" fill="black"/>
<path d="M102.222 0.777344H81.7778V21.2218H102.222V0.777344Z" fill="black"/>
<path d="M102.222 21.2227H81.7778V41.6671H102.222V21.2227Z" fill="black"/>
<path d="M102.222 41.667H81.7778V62.1114H102.222V41.667Z" fill="black"/>
<path d="M102.222 62.1113H81.7778V82.5558H102.222V62.1113Z" fill="black"/>
<path d="M20.4444 21.2227H0V41.6671H20.4444V21.2227Z" fill="black"/>
</svg>
