<svg width="128" height="184" viewBox="0 0 128 184" fill="none" xmlns="http://www.w3.org/2000/svg">
<path d="M42.3476 19.126H21.1738V40.2997H42.3476V19.126Z" fill="black"/>
<path d="M63.5212 19.126H42.3474V40.2997H63.5212V19.126Z" fill="black"/>
<path d="M84.695 19.126H63.5212V40.2997H84.695V19.126Z" fill="black"/>
<path d="M74.1081 40.3008H52.9343V61.4746H74.1081V40.3008Z" fill="black"/>
<path d="M74.1081 0H52.9343V21.1738H74.1081V0Z" fill="black"/>
<path d="M74.1081 61.4746H52.9343V82.6484H74.1081V61.4746Z" fill="black"/>
<path d="M74.1081 99.3057H52.9343V120.479H74.1081V99.3057Z" fill="black"/>
<path d="M74.1081 120.479H52.9343V141.652H74.1081V120.479Z" fill="black"/>
<path d="M74.1081 162.826H52.9343V184H74.1081V162.826Z" fill="black"/>
<path d="M105.869 19.126H84.6951V40.2997H105.869V19.126Z" fill="black"/>
<path d="M126.174 40H105V61.1738H126.174V40Z" fill="black"/>
<path d="M127.043 120.479H105.869V141.652H127.043V120.479Z" fill="black"/>
<path d="M21.1738 61.4746H0V82.6484H21.1738V61.4746Z" fill="black"/>
<path d="M42.3476 78.1309H21.1738V99.3046H42.3476V78.1309Z" fill="black"/>
<path d="M63.5212 78.1309H42.3474V99.3046H63.5212V78.1309Z" fill="black"/>
<path d="M84.695 78.1309H63.5212V99.3046H84.695V78.1309Z" fill="black"/>
<path d="M105.869 78.1309H84.6951V99.3046H105.869V78.1309Z" fill="black"/>
<path d="M42.3476 141.652H21.1738V162.826H42.3476V141.652Z" fill="black"/>
<path d="M21.1738 121H0V142.174H21.1738V121Z" fill="black"/>
<path d="M63.5212 141.652H42.3474V162.826H63.5212V141.652Z" fill="black"/>
<path d="M84.695 141.652H63.5212V162.826H84.695V141.652Z" fill="black"/>
<path d="M105.869 141.652H84.6951V162.826H105.869V141.652Z" fill="black"/>
<path d="M127.043 99.3057H105.869V120.479H127.043V99.3057Z" fill="black"/>
<path d="M21.1738 40.3008H0V61.4746H21.1738V40.3008Z" fill="black"/>
</svg>
