<svg width="160" height="183" viewBox="0 0 160 183" fill="none" xmlns="http://www.w3.org/2000/svg">
<path d="M45.875 0H23V22.875H45.875V0Z" fill="black"/>
<path d="M22.875 22.875H0V45.75H22.875V22.875Z" fill="black"/>
<path d="M68.875 0H46V22.875H68.875V0Z" fill="black"/>
<path d="M22.875 45.75H0V68.625H22.875V45.75Z" fill="black"/>
<path d="M22.875 68.625H0V91.5H22.875V68.625Z" fill="black"/>
<path d="M159.875 68.625H137V91.5H159.875V68.625Z" fill="black"/>
<path d="M159.875 45.75H137V68.625H159.875V45.75Z" fill="black"/>
<path d="M91.875 0H69V22.875H91.875V0Z" fill="black"/>
<path d="M114.875 0H92V22.875H114.875V0Z" fill="black"/>
<path d="M137.875 0H115V22.875H137.875V0Z" fill="black"/>
<path d="M159.875 23H137V45.875H159.875V23Z" fill="black"/>
<path d="M22.875 91.5H0V114.375H22.875V91.5Z" fill="black"/>
<path d="M22.875 114.375H0V137.25H22.875V114.375Z" fill="black"/>
<path d="M159.875 114.375H137V137.25H159.875V114.375Z" fill="black"/>
<path d="M160 91H137V115H160V91Z" fill="black"/>
<path d="M22.875 137.25H0V160.125H22.875V137.25Z" fill="black"/>
<path d="M45.875 115H23V137.875H45.875V115Z" fill="black"/>
<path d="M68.875 115H46V137.875H68.875V115Z" fill="black"/>
<path d="M91.875 115H69V137.875H91.875V115Z" fill="black"/>
<path d="M114.875 115H92V137.875H114.875V115Z" fill="black"/>
<path d="M137.875 115H115V137.875H137.875V115Z" fill="black"/>
<path d="M159.875 137.25H137V160.125H159.875V137.25Z" fill="black"/>
<path d="M68.625 160.125H45.75V183H68.625V160.125Z" fill="black"/>
<path d="M45.75 160.125H22.875V183H45.75V160.125Z" fill="black"/>
<path d="M91.5 160.125H68.625V183H91.5V160.125Z" fill="black"/>
<path d="M114.375 160.125H91.5V183H114.375V160.125Z" fill="black"/>
<path d="M136.875 160.125H114V183H136.875V160.125Z" fill="black"/>
</svg>
