<svg width="184" height="184" viewBox="0 0 184 184" fill="none" xmlns="http://www.w3.org/2000/svg">
<path d="M23 138H0V161H23V138Z" fill="black"/>
<path d="M23 115H0V138H23V115Z" fill="black"/>
<path d="M23 92H0V115H23V92Z" fill="black"/>
<path d="M23 69H0V92H23V69Z" fill="black"/>
<path d="M69 69H46V92H69V69Z" fill="black"/>
<path d="M92 69H69V92H92V69Z" fill="black"/>
<path d="M92 92H69V115H92V92Z" fill="black"/>
<path d="M92 115H69V138H92V115Z" fill="black"/>
<path d="M92 138H69V161H92V138Z" fill="black"/>
<path d="M92 46H69V69H92V46Z" fill="black"/>
<path d="M92 23H69V46H92V23Z" fill="black"/>
<path d="M92 0H69V23H92V0Z" fill="black"/>
<path d="M184 69H161V92H184V69Z" fill="black"/>
<path d="M184 46H161V69H184V46Z" fill="black"/>
<path d="M184 115H161V138H184V115Z" fill="black"/>
<path d="M184 138H161V161H184V138Z" fill="black"/>
<path d="M138 46H115V69H138V46Z" fill="black"/>
<path d="M184 92H161V115H184V92Z" fill="black"/>
<path d="M184 23H161V46H184V23Z" fill="black"/>
<path d="M184 0H161V23H184V0Z" fill="black"/>
<path d="M115 0H92V23H115V0Z" fill="black"/>
<path d="M138 0H115V23H138V0Z" fill="black"/>
<path d="M161 0H138V23H161V0Z" fill="black"/>
<path d="M23 161H0V184H23V161Z" fill="black"/>
<path d="M138 161H115V184H138V161Z" fill="black"/>
<path d="M69 161H46V184H69V161Z" fill="black"/>
<path d="M46 69H23V92H46V69Z" fill="black"/>
<path d="M46 161H23V184H46V161Z" fill="black"/>
<path d="M92 161H69V184H92V161Z" fill="black"/>
<path d="M115 161H92V184H115V161Z" fill="black"/>
<path d="M184 161H161V184H184V161Z" fill="black"/>
<path d="M161 161H138V184H161V161Z" fill="black"/>
</svg>
