<svg width="121" height="68" viewBox="0 0 121 68" fill="none" xmlns="http://www.w3.org/2000/svg">
<path d="M53.6142 27.2695H66.9539V13.9302L53.6142 13.9302V27.2695Z" fill="black"/>
<path d="M80.2692 27.2695H93.6089V13.9302L80.2692 13.9302V27.2695Z" fill="black"/>
<path d="M93.5852 27.2695H106.924V13.9302L93.5852 13.9302V27.2695Z" fill="black"/>
<path d="M40.2752 13.9307L53.6143 13.9307V0.591291L40.2752 0.591291V13.9307Z" fill="black"/>
<path d="M40.2989 0.614258H26.9592V13.9536H40.2989V0.614258Z" fill="black"/>
<path d="M13.8803 0.852539H0.54126V14.1918H13.8803V0.852539Z" fill="black"/>
<path d="M53.6142 13.9307L66.9539 13.9307V0.591291L53.6142 0.591291V13.9307Z" fill="black"/>
<path d="M80.2692 13.9307L93.6089 13.9307V0.591291L80.2692 0.591291V13.9307Z" fill="black"/>
<path d="M66.9302 13.9307L80.2693 13.9307V0.591291L66.9302 0.591291V13.9307Z" fill="black"/>
<path d="M93.5852 13.9307L106.924 13.9307V0.591291L93.5852 0.591291V13.9307Z" fill="black"/>
<path d="M93.5852 40.5859H106.924V27.2466H93.5852V40.5859Z" fill="black"/>
<path d="M93.5852 53.9248H106.924V40.5854H93.5852V53.9248Z" fill="black"/>
<path d="M80.2692 40.5859H93.6089V27.2466H80.2692V40.5859Z" fill="black"/>
<path d="M80.2692 53.9248H93.6089V40.5854H80.2692V53.9248Z" fill="black"/>
<path d="M66.9302 40.5859H80.2693V27.2466H66.9302V40.5859Z" fill="black"/>
<path d="M66.9302 53.9248H80.2693V40.5854H66.9302V53.9248Z" fill="black"/>
<path d="M53.6142 40.5859H66.9539V27.2466H53.6142V40.5859Z" fill="black"/>
<path d="M40.2752 40.5859H53.6143V27.2466H40.2752V40.5859Z" fill="black"/>
<path d="M26.9592 40.5859H40.2988V27.2466H26.9592V40.5859Z" fill="black"/>
<path d="M53.6142 53.9248H66.9539V40.5854H53.6142V53.9248Z" fill="black"/>
<path d="M40.2752 53.9248H53.6143V40.5854H40.2752V53.9248Z" fill="black"/>
<path d="M26.9592 53.9248H40.2988V40.5854H26.9592V53.9248Z" fill="black"/>
<path d="M93.5852 67.2402H106.924V53.9009H93.5852V67.2402Z" fill="black"/>
<path d="M106.924 53.9248H120.264V40.5854H106.924V53.9248Z" fill="black"/>
<path d="M80.2692 67.2402H93.6089V53.9009H80.2692V67.2402Z" fill="black"/>
<path d="M66.9302 67.2402H80.2693V53.9009H66.9302V67.2402Z" fill="black"/>
<path d="M53.6142 67.2402H66.9539V53.9009H53.6142V67.2402Z" fill="black"/>
<path d="M40.2752 67.2402H53.6143V53.9009H40.2752V67.2402Z" fill="black"/>
<path d="M26.9592 67.2402H40.2988V53.9009H26.9592V67.2402Z" fill="black"/>
<path d="M13.6201 67.2402H26.9592V53.9009H13.6201L13.6201 67.2402Z" fill="black"/>
<path d="M0.304135 67.2402H13.6438L13.6438 53.9009H0.304135L0.304135 67.2402Z" fill="black"/>
</svg>
