<svg width="160" height="206" viewBox="0 0 160 206" fill="none" xmlns="http://www.w3.org/2000/svg">
<path d="M45.875 0H23V22.875H45.875V0Z" fill="black"/>
<path d="M22.875 22.875H0V45.75H22.875V22.875Z" fill="black"/>
<path d="M68.875 0H46V22.875H68.875V0Z" fill="black"/>
<path d="M22.875 45.75H0V68.625H22.875V45.75Z" fill="black"/>
<path d="M22.875 68.625H0V91.5H22.875V68.625Z" fill="black"/>
<path d="M159.875 68.625H137V91.5H159.875V68.625Z" fill="black"/>
<path d="M159.875 45.75H137V68.625H159.875V45.75Z" fill="black"/>
<path d="M91.875 0H69V22.875H91.875V0Z" fill="black"/>
<path d="M114.875 0H92V22.875H114.875V0Z" fill="black"/>
<path d="M137.875 0H115V22.875H137.875V0Z" fill="black"/>
<path d="M159.875 23H137V45.875H159.875V23Z" fill="black"/>
<path d="M22.875 91.5H0V114.375H22.875V91.5Z" fill="black"/>
<path d="M22.875 114.375H0V137.25H22.875V114.375Z" fill="black"/>
<path d="M159.875 114.375H137V137.25H159.875V114.375Z" fill="black"/>
<path d="M159.875 138H137V160.875H159.875V138Z" fill="black"/>
<path d="M160 91H137V115H160V91Z" fill="black"/>
<path d="M22.875 160.25H0V183.125H22.875V160.25Z" fill="black"/>
<path d="M22.875 137H0V159.875H22.875V137Z" fill="black"/>
<path d="M91.875 138H69V160.875H91.875V138Z" fill="black"/>
<path d="M91.875 46H69V68.875H91.875V46Z" fill="black"/>
<path d="M68.875 46H46V68.875H68.875V46Z" fill="black"/>
<path d="M114.875 46H92V68.875H114.875V46Z" fill="black"/>
<path d="M68.875 69H46V91.875H68.875V69Z" fill="black"/>
<path d="M68.875 92H46V114.875H68.875V92Z" fill="black"/>
<path d="M114.875 69H92V91.875H114.875V69Z" fill="black"/>
<path d="M114.875 92H92V114.875H114.875V92Z" fill="black"/>
<path d="M91.875 69H69V91.875H91.875V69Z" fill="black"/>
<path d="M91.875 92H69V114.875H91.875V92Z" fill="black"/>
<path d="M159.875 160.25H137V183.125H159.875V160.25Z" fill="black"/>
<path d="M68.625 183.125H45.75V206H68.625V183.125Z" fill="black"/>
<path d="M45.75 183.125H22.875V206H45.75V183.125Z" fill="black"/>
<path d="M91.5 183.125H68.625V206H91.5V183.125Z" fill="black"/>
<path d="M114.375 183.125H91.5V206H114.375V183.125Z" fill="black"/>
<path d="M136.875 183.125H114V206H136.875V183.125Z" fill="black"/>
</svg>
