<svg width="205" height="251" viewBox="0 0 205 251" fill="none" xmlns="http://www.w3.org/2000/svg">
<path d="M68 45H45V68H68V45Z" fill="black"/>
<path d="M44.875 67.875H22V90.75H44.875V67.875Z" fill="black"/>
<path d="M90.875 45H68V67.875H90.875V45Z" fill="black"/>
<path d="M22.875 91H0V113.875H22.875V91Z" fill="black"/>
<path d="M22.875 113.625H0V136.5H22.875V113.625Z" fill="black"/>
<path d="M204.875 113.625H182V136.5H204.875V113.625Z" fill="black"/>
<path d="M204.875 90.75H182V113.625H204.875V90.75Z" fill="black"/>
<path d="M114 45H89V68H114V45Z" fill="black"/>
<path d="M90.875 23H68V45.875H90.875V23Z" fill="black"/>
<path d="M113.875 68H91V90.875H113.875V68Z" fill="black"/>
<path d="M67.875 0H45V22.875H67.875V0Z" fill="black"/>
<path d="M138 45H114V68H138V45Z" fill="black"/>
<path d="M159.875 45H137V67.875H159.875V45Z" fill="black"/>
<path d="M181.875 68H159V90.875H181.875V68Z" fill="black"/>
<path d="M22.875 136.5H0V159.375H22.875V136.5Z" fill="black"/>
<path d="M22.875 159.375H0V182.25H22.875V159.375Z" fill="black"/>
<path d="M204.875 159.375H182V182.25H204.875V159.375Z" fill="black"/>
<path d="M204.875 183H182V205.875H204.875V183Z" fill="black"/>
<path d="M205 136H182V160H205V136Z" fill="black"/>
<path d="M44.875 205.25H22V228.125H44.875V205.25Z" fill="black"/>
<path d="M22.875 182H0V204.875H22.875V182Z" fill="black"/>
<path d="M90.875 91H68V113.875H90.875V91Z" fill="black"/>
<path d="M136.875 91H114V113.875H136.875V91Z" fill="black"/>
<path d="M113.875 114H91V136.875H113.875V114Z" fill="black"/>
<path d="M181.875 205.25H159V228.125H181.875V205.25Z" fill="black"/>
<path d="M90.625 228.125H67.75V251H90.625V228.125Z" fill="black"/>
<path d="M67.75 228.125H44.875V251H67.75V228.125Z" fill="black"/>
<path d="M113.5 228.125H90.625V251H113.5V228.125Z" fill="black"/>
<path d="M136.375 228.125H113.5V251H136.375V228.125Z" fill="black"/>
<path d="M158.875 228.125H136V251H158.875V228.125Z" fill="black"/>
</svg>
