<svg width="225" height="184" viewBox="0 0 225 184" fill="none" xmlns="http://www.w3.org/2000/svg">
<path d="M40.8888 40.8887H20.4443V61.3331H40.8888V40.8887Z" fill="black"/>
<path d="M40.8888 102.223H20.4443V122.667H40.8888V102.223Z" fill="black"/>
<path d="M20.4445 122.667H0V143.111H20.4445V122.667Z" fill="black"/>
<path d="M102.222 20.4443H81.7778V40.8887H102.222V20.4443Z" fill="black"/>
<path d="M102.222 40.8887H81.7778V61.3331H102.222V40.8887Z" fill="black"/>
<path d="M102.222 61.333H81.7778V81.7775H102.222V61.333Z" fill="black"/>
<path d="M81.7777 81.7773H61.3333V102.222H81.7777V81.7773Z" fill="black"/>
<path d="M102.222 102.223H81.7778V122.667H102.222V102.223Z" fill="black"/>
<path d="M122.667 122.667H102.222V143.111H122.667V122.667Z" fill="black"/>
<path d="M143.111 143.111H122.667V163.556H143.111V143.111Z" fill="black"/>
<path d="M122.667 163.556H102.222V184H122.667V163.556Z" fill="black"/>
<path d="M184 122.667H163.556V143.111H184V122.667Z" fill="black"/>
<path d="M204.444 143.111H184V163.556H204.444V143.111Z" fill="black"/>
<path d="M224.889 163.556H204.445V184H224.889V163.556Z" fill="black"/>
<path d="M204.444 102.223H184V122.667H204.444V102.223Z" fill="black"/>
<path d="M204.444 81.7773H184V102.222H204.444V81.7773Z" fill="black"/>
<path d="M204.444 61.333H184V81.7775H204.444V61.333Z" fill="black"/>
<path d="M204.444 40.8887H184V61.3331H204.444V40.8887Z" fill="black"/>
<path d="M204.444 20.4443H184V40.8887H204.444V20.4443Z" fill="black"/>
<path d="M184 0H163.556V20.4445H184V0Z" fill="black"/>
<path d="M204.444 0H184V20.4445H204.444V0Z" fill="black"/>
<path d="M224.889 20.4443H204.445V40.8887H224.889V20.4443Z" fill="black"/>
<path d="M224.889 0H204.445V20.4445H224.889V0Z" fill="black"/>
<path d="M224.889 61.333H204.445V81.7775H224.889V61.333Z" fill="black"/>
<path d="M224.889 40.8887H204.445V61.3331H224.889V40.8887Z" fill="black"/>
<path d="M163.556 0H143.111V20.4445H163.556V0Z" fill="black"/>
<path d="M143.111 122.667H122.667V143.111H143.111V122.667Z" fill="black"/>
<path d="M163.556 122.667H143.111V143.111H163.556V122.667Z" fill="black"/>
<path d="M122.667 0H102.222V20.4445H122.667V0Z" fill="black"/>
<path d="M143.111 0H122.667V20.4445H143.111V0Z" fill="black"/>
<path d="M163.556 40.8887H143.111V61.3331H163.556V40.8887Z" fill="black"/>
<path d="M163.556 61.333H143.111V81.7775H163.556V61.333Z" fill="black"/>
<path d="M20.4445 20.4443H0V40.8887H20.4445V20.4443Z" fill="black"/>
</svg>
